<?xml version="1.0" encoding="UTF-8" standalone="no"?>
<!DOCTYPE svg PUBLIC "-//W3C//DTD SVG 1.1//EN" "http://www.w3.org/Graphics/SVG/1.1/DTD/svg11.dtd">
<!-- Created with Vectornator (http://vectornator.io/) -->
<svg height="100%" stroke-miterlimit="10" style="fill-rule:nonzero;clip-rule:evenodd;stroke-linecap:round;stroke-linejoin:round;" version="1.1" viewBox="0 0 1440 216" width="100%" xml:space="preserve" xmlns="http://www.w3.org/2000/svg" xmlns:vectornator="http://vectornator.io" xmlns:xlink="http://www.w3.org/1999/xlink">
<defs>
<clipPath id="TextBounds">
<rect height="21" width="250.796" x="1134.46" y="91"/>
</clipPath>
<clipPath id="TextBounds_2">
<rect height="21" width="250.796" x="1136.88" y="128.116"/>
</clipPath>
<clipPath id="TextBounds_3">
<rect height="21" width="278.817" x="1108.86" y="165.232"/>
</clipPath>
<clipPath id="TextBounds_4">
<rect height="14" width="110.331" x="1274.74" y="57.061"/>
</clipPath>
<clipPath id="TextBounds_5">
<rect height="93" width="577.526" x="265.931" y="102.981"/>
</clipPath>
<clipPath id="TextBounds_6">
<rect height="33" width="601.638" x="268.757" y="75.7029"/>
</clipPath>
</defs>
<clipPath id="ArtboardFrame">
<rect height="216" width="1440" x="0" y="0"/>
</clipPath>
<g clip-path="url(#ArtboardFrame)" id="Banner" vectornator:layerName="Banner">
<path d="M185.406 0C182.424 0 180 2.42391 180 5.40625L180 210.594C180 213.576 182.424 216 185.406 216L1434.59 216C1437.58 216 1440 213.576 1440 210.594L1440 5.40625C1440 2.42392 1437.58 6.35783e-07 1434.59 0L185.406 0Z" fill="#fcf3c0" fill-rule="nonzero" opacity="1" stroke="none"/>
<path d="M272.04 30C261.677 20 251.313 10 240.95 0L1.29644 0C0.580603 0 0.000305176 0.580293 0.000305176 1.29612L0.000305176 214.704C0.000305176 215.42 0.580598 216 1.29643 216L1438.7 216C1439.42 216 1440 215.42 1440 214.704L1440 31.2961C1440 30.5803 1439.42 30 1438.7 30L272.04 30Z" fill="#5b6a2b" fill-rule="nonzero" opacity="1" stroke="none"/>
<g fill="#fcf3c0" opacity="1" stroke="none">
<path clip-path="url(#TextBounds)" d="M1232.4 108C1232.56 108 1232.67 107.892 1232.67 107.73L1232.67 106.182C1232.67 106.02 1232.56 105.912 1232.4 105.912L1229.49 105.912L1229.49 98.028L1232.4 98.028C1232.56 98.028 1232.67 97.92 1232.67 97.758L1232.67 96.21C1232.67 96.048 1232.56 95.94 1232.4 95.94L1224.22 95.94C1224.06 95.94 1223.95 96.048 1223.95 96.21L1223.95 97.758C1223.95 97.92 1224.06 98.028 1224.22 98.028L1227.13 98.028L1227.13 105.912L1224.22 105.912C1224.06 105.912 1223.95 106.02 1223.95 106.182L1223.95 107.73C1223.95 107.892 1224.06 108 1224.22 108L1232.4 108Z"/>
<path clip-path="url(#TextBounds)" d="M1242.84 108C1242.98 108 1243.11 107.928 1243.15 107.784L1246.35 96.246C1246.39 96.066 1246.33 95.94 1246.13 95.94L1244.3 95.94C1244.15 95.94 1244.03 95.994 1243.99 96.156L1241.54 105.561L1241.22 105.561L1238.77 96.156C1238.73 95.994 1238.61 95.94 1238.46 95.94L1236.64 95.94C1236.44 95.94 1236.37 96.066 1236.42 96.246L1239.61 107.784C1239.65 107.928 1239.78 108 1239.92 108L1242.84 108Z"/>
<path clip-path="url(#TextBounds)" d="M1257.28 95.94C1257.13 95.94 1257.01 95.994 1256.95 96.12L1254.45 101.097L1251.96 96.12C1251.88 95.994 1251.78 95.94 1251.63 95.94L1249.72 95.94C1249.5 95.94 1249.43 96.066 1249.54 96.264L1253.27 103.302L1253.27 107.73C1253.27 107.892 1253.38 108 1253.54 108L1255.36 108C1255.52 108 1255.63 107.892 1255.63 107.73L1255.63 103.338L1259.36 96.264C1259.47 96.066 1259.4 95.94 1259.18 95.94L1257.28 95.94Z"/>
<path clip-path="url(#TextBounds)" d="M1267.6 95.301C1264.76 95.301 1262.94 96.579 1262.94 100.008L1262.94 105.597C1262.94 109.026 1264.82 110.142 1268.21 110.142C1268.99 110.142 1270.02 110.088 1270.91 109.836L1270.91 108.252C1270.1 108.423 1269.11 108.477 1268.37 108.477C1265.96 108.477 1264.67 107.928 1264.67 105.435L1264.67 100.179C1264.67 97.605 1265.82 96.984 1267.6 96.984C1268.55 96.984 1269.29 97.146 1269.77 97.731C1268.01 97.668 1266.74 98.775 1266.74 100.584L1266.74 103.428C1266.74 105.309 1267.68 106.146 1269.43 106.146C1270.94 106.146 1272.1 105.309 1272.1 103.428L1272.1 99.864C1272.1 96.48 1270.24 95.301 1267.6 95.301ZM1270.37 103.302C1270.37 103.986 1270.11 104.526 1269.43 104.526C1268.64 104.526 1268.47 103.986 1268.47 103.302L1268.47 100.755C1268.47 99.27 1269.2 98.802 1270.27 98.928C1270.34 99.261 1270.37 99.657 1270.37 100.107L1270.37 103.302Z"/>
<path clip-path="url(#TextBounds)" d="M1282.64 108C1282.8 108 1282.91 107.892 1282.91 107.73L1282.91 106.929C1282.91 106.767 1282.8 106.659 1282.64 106.659L1279.32 106.659L1279.32 97.281L1282.64 97.281C1282.8 97.281 1282.91 97.173 1282.91 97.011L1282.91 96.21C1282.91 96.048 1282.8 95.94 1282.64 95.94L1274.54 95.94C1274.38 95.94 1274.27 96.048 1274.27 96.21L1274.27 97.011C1274.27 97.173 1274.38 97.281 1274.54 97.281L1277.86 97.281L1277.86 106.659L1274.54 106.659C1274.38 106.659 1274.27 106.767 1274.27 106.929L1274.27 107.73C1274.27 107.892 1274.38 108 1274.54 108L1282.64 108Z"/>
<path clip-path="url(#TextBounds)" d="M1290.56 108C1290.7 108 1290.84 107.928 1290.88 107.784L1294.56 96.246C1294.6 96.066 1294.54 95.94 1294.34 95.94L1293.43 95.94C1293.29 95.94 1293.18 95.994 1293.12 96.156L1289.88 106.497L1289.44 106.497L1286.19 96.156C1286.14 95.994 1286.03 95.94 1285.89 95.94L1284.98 95.94C1284.79 95.94 1284.72 96.066 1284.76 96.246L1288.44 107.784C1288.48 107.928 1288.62 108 1288.76 108L1290.56 108Z"/>
<path clip-path="url(#TextBounds)" d="M1304.35 95.94C1304.19 95.94 1304.09 95.994 1304.01 96.12L1300.73 101.934L1297.44 96.12C1297.37 95.994 1297.26 95.94 1297.12 95.94L1296.14 95.94C1295.92 95.94 1295.85 96.084 1295.96 96.264L1300 103.311L1300 107.73C1300 107.892 1300.11 108 1300.27 108L1301.19 108C1301.35 108 1301.46 107.892 1301.46 107.73L1301.46 103.311L1305.5 96.264C1305.61 96.084 1305.54 95.94 1305.32 95.94L1304.35 95.94Z"/>
<path clip-path="url(#TextBounds)" d="M1311.8 108.234C1312.65 108.234 1313.31 107.568 1313.31 106.722C1313.31 105.876 1312.65 105.21 1311.8 105.21C1310.94 105.21 1310.29 105.876 1310.29 106.722C1310.29 107.568 1310.94 108.234 1311.8 108.234Z"/>
<path clip-path="url(#TextBounds)" d="M1322 108C1326.27 108 1327.39 105.597 1327.39 101.97C1327.39 98.343 1326.27 95.94 1322 95.94L1318.9 95.94C1318.74 95.94 1318.63 96.048 1318.63 96.21L1318.63 107.73C1318.63 107.892 1318.74 108 1318.9 108L1322 108ZM1320.09 97.281L1321.95 97.281C1325.25 97.281 1325.9 99.018 1325.9 101.97C1325.9 104.922 1325.25 106.659 1321.95 106.659L1320.09 106.659L1320.09 97.281Z"/>
<path clip-path="url(#TextBounds)" d="M1337.99 108C1338.15 108 1338.26 107.892 1338.26 107.73L1338.26 106.929C1338.26 106.767 1338.15 106.659 1337.99 106.659L1334.67 106.659L1334.67 97.281L1337.99 97.281C1338.15 97.281 1338.26 97.173 1338.26 97.011L1338.26 96.21C1338.26 96.048 1338.15 95.94 1337.99 95.94L1329.89 95.94C1329.73 95.94 1329.62 96.048 1329.62 96.21L1329.62 97.011C1329.62 97.173 1329.73 97.281 1329.89 97.281L1333.21 97.281L1333.21 106.659L1329.89 106.659C1329.73 106.659 1329.62 106.767 1329.62 106.929L1329.62 107.73C1329.62 107.892 1329.73 108 1329.89 108L1337.99 108Z"/>
<path clip-path="url(#TextBounds)" d="M1342.18 108C1342.35 108 1342.45 107.892 1342.45 107.73L1342.45 103.68L1345.56 103.68L1347.75 107.802C1347.83 107.937 1347.93 108 1348.07 108L1349.03 108C1349.24 108 1349.33 107.874 1349.23 107.685L1346.97 103.464C1348.65 102.969 1349.39 101.628 1349.39 99.81C1349.39 97.479 1348.18 95.94 1345.32 95.94L1341.27 95.94C1341.1 95.94 1341 96.048 1341 96.21L1341 107.73C1341 107.892 1341.1 108 1341.27 108L1342.18 108ZM1342.45 97.281L1345.14 97.281C1346.9 97.281 1347.97 97.902 1347.97 99.81C1347.97 101.718 1346.9 102.339 1345.14 102.339L1342.45 102.339L1342.45 97.281Z"/>
<path clip-path="url(#TextBounds)" d="M1359.87 108C1360.03 108 1360.14 107.892 1360.14 107.73L1360.14 106.929C1360.14 106.767 1360.03 106.659 1359.87 106.659L1353.49 106.659L1353.49 102.501L1359.45 102.501C1359.61 102.501 1359.72 102.393 1359.72 102.231L1359.72 101.43C1359.72 101.268 1359.61 101.16 1359.45 101.16L1353.49 101.16L1353.49 97.281L1359.85 97.281C1360.01 97.281 1360.12 97.173 1360.12 97.011L1360.12 96.21C1360.12 96.048 1360.01 95.94 1359.85 95.94L1352.3 95.94C1352.14 95.94 1352.03 96.048 1352.03 96.21L1352.03 107.73C1352.03 107.892 1352.14 108 1352.3 108L1359.87 108Z"/>
<path clip-path="url(#TextBounds)" d="M1367.33 108.27C1369.47 108.27 1371.24 107.46 1371.49 104.832C1371.5 104.643 1371.42 104.535 1371.24 104.535L1370.39 104.535C1370.25 104.535 1370.14 104.607 1370.12 104.769C1369.84 106.452 1368.73 106.866 1367.36 106.866C1365.48 106.866 1364.16 106.038 1364.16 102.015C1364.16 97.992 1365.48 97.164 1367.36 97.164C1368.72 97.164 1369.84 97.578 1370.12 99.801C1370.14 99.963 1370.25 100.035 1370.39 100.035L1371.24 100.035C1371.42 100.035 1371.5 99.927 1371.49 99.729C1371.24 96.57 1369.47 95.76 1367.33 95.76C1364.41 95.76 1362.73 97.29 1362.73 102.015C1362.73 106.74 1364.41 108.27 1367.33 108.27Z"/>
<path clip-path="url(#TextBounds)" d="M1378.68 108C1378.84 108 1378.95 107.892 1378.95 107.73L1378.95 97.281L1382.58 97.281C1382.75 97.281 1382.85 97.173 1382.85 97.011L1382.85 96.21C1382.85 96.048 1382.75 95.94 1382.58 95.94L1373.85 95.94C1373.69 95.94 1373.58 96.048 1373.58 96.21L1373.58 97.011C1373.58 97.173 1373.69 97.281 1373.85 97.281L1377.49 97.281L1377.49 107.73C1377.49 107.892 1377.6 108 1377.76 108L1378.68 108Z"/>
</g>
<g fill="#fcf3c0" opacity="1" stroke="none">
<path clip-path="url(#TextBounds_2)" d="M1173.57 145.116C1173.73 145.116 1173.84 145.008 1173.84 144.846L1173.84 144.045C1173.84 143.883 1173.73 143.775 1173.57 143.775L1170.25 143.775L1170.25 134.397L1173.57 134.397C1173.73 134.397 1173.84 134.289 1173.84 134.127L1173.84 133.326C1173.84 133.164 1173.73 133.056 1173.57 133.056L1165.47 133.056C1165.31 133.056 1165.2 133.164 1165.2 133.326L1165.2 134.127C1165.2 134.289 1165.31 134.397 1165.47 134.397L1168.79 134.397L1168.79 143.775L1165.47 143.775C1165.31 143.775 1165.2 143.883 1165.2 144.045L1165.2 144.846C1165.2 145.008 1165.31 145.116 1165.47 145.116L1173.57 145.116Z"/>
<path clip-path="url(#TextBounds_2)" d="M1183.49 145.116C1183.64 145.116 1183.77 145.044 1183.82 144.9L1187.49 133.362C1187.53 133.182 1187.47 133.056 1187.27 133.056L1186.36 133.056C1186.22 133.056 1186.11 133.11 1186.06 133.272L1182.81 143.613L1182.38 143.613L1179.13 133.272C1179.07 133.11 1178.97 133.056 1178.82 133.056L1177.91 133.056C1177.72 133.056 1177.65 133.182 1177.7 133.362L1181.37 144.9C1181.41 145.044 1181.55 145.116 1181.69 145.116L1183.49 145.116Z"/>
<path clip-path="url(#TextBounds_2)" d="M1199.28 133.056C1199.13 133.056 1199.02 133.11 1198.95 133.236L1195.66 139.05L1192.37 133.236C1192.31 133.11 1192.19 133.056 1192.05 133.056L1191.07 133.056C1190.86 133.056 1190.78 133.2 1190.89 133.38L1194.93 140.427L1194.93 144.846C1194.93 145.008 1195.04 145.116 1195.2 145.116L1196.12 145.116C1196.28 145.116 1196.39 145.008 1196.39 144.846L1196.39 140.427L1200.43 133.38C1200.54 133.2 1200.47 133.056 1200.25 133.056L1199.28 133.056Z"/>
<path clip-path="url(#TextBounds_2)" d="M1208.73 145.35C1209.59 145.35 1210.24 144.684 1210.24 143.838C1210.24 142.992 1209.59 142.326 1208.73 142.326C1207.88 142.326 1207.22 142.992 1207.22 143.838C1207.22 144.684 1207.88 145.35 1208.73 145.35Z"/>
<path clip-path="url(#TextBounds_2)" d="M1220.93 145.116C1225.2 145.116 1226.32 142.713 1226.32 139.086C1226.32 135.459 1225.2 133.056 1220.93 133.056L1217.83 133.056C1217.67 133.056 1217.56 133.164 1217.56 133.326L1217.56 144.846C1217.56 145.008 1217.67 145.116 1217.83 145.116L1220.93 145.116ZM1219.02 134.397L1220.88 134.397C1224.19 134.397 1224.84 136.134 1224.84 139.086C1224.84 142.038 1224.19 143.775 1220.88 143.775L1219.02 143.775L1219.02 134.397Z"/>
<path clip-path="url(#TextBounds_2)" d="M1238.92 145.116C1239.08 145.116 1239.19 145.008 1239.19 144.846L1239.19 144.045C1239.19 143.883 1239.08 143.775 1238.92 143.775L1235.6 143.775L1235.6 134.397L1238.92 134.397C1239.08 134.397 1239.19 134.289 1239.19 134.127L1239.19 133.326C1239.19 133.164 1239.08 133.056 1238.92 133.056L1230.82 133.056C1230.66 133.056 1230.55 133.164 1230.55 133.326L1230.55 134.127C1230.55 134.289 1230.66 134.397 1230.82 134.397L1234.14 134.397L1234.14 143.775L1230.82 143.775C1230.66 143.775 1230.55 143.883 1230.55 144.045L1230.55 144.846C1230.55 145.008 1230.66 145.116 1230.82 145.116L1238.92 145.116Z"/>
<path clip-path="url(#TextBounds_2)" d="M1245.12 145.116C1245.28 145.116 1245.39 145.008 1245.39 144.846L1245.39 140.796L1248.49 140.796L1250.69 144.918C1250.76 145.053 1250.86 145.116 1251 145.116L1251.97 145.116C1252.17 145.116 1252.26 144.99 1252.16 144.801L1249.9 140.58C1251.59 140.085 1252.33 138.744 1252.33 136.926C1252.33 134.595 1251.11 133.056 1248.25 133.056L1244.2 133.056C1244.04 133.056 1243.93 133.164 1243.93 133.326L1243.93 144.846C1243.93 145.008 1244.04 145.116 1244.2 145.116L1245.12 145.116ZM1245.39 134.397L1248.07 134.397C1249.83 134.397 1250.9 135.018 1250.9 136.926C1250.9 138.834 1249.83 139.455 1248.07 139.455L1245.39 139.455L1245.39 134.397Z"/>
<path clip-path="url(#TextBounds_2)" d="M1264.8 145.116C1264.96 145.116 1265.07 145.008 1265.07 144.846L1265.07 144.045C1265.07 143.883 1264.96 143.775 1264.8 143.775L1258.42 143.775L1258.42 139.617L1264.38 139.617C1264.54 139.617 1264.65 139.509 1264.65 139.347L1264.65 138.546C1264.65 138.384 1264.54 138.276 1264.38 138.276L1258.42 138.276L1258.42 134.397L1264.78 134.397C1264.95 134.397 1265.05 134.289 1265.05 134.127L1265.05 133.326C1265.05 133.164 1264.95 133.056 1264.78 133.056L1257.23 133.056C1257.07 133.056 1256.96 133.164 1256.96 133.326L1256.96 144.846C1256.96 145.008 1257.07 145.116 1257.23 145.116L1264.8 145.116Z"/>
<path clip-path="url(#TextBounds_2)" d="M1274.26 145.386C1276.4 145.386 1278.18 144.576 1278.42 141.948C1278.43 141.759 1278.36 141.651 1278.18 141.651L1277.32 141.651C1277.18 141.651 1277.07 141.723 1277.05 141.885C1276.77 143.568 1275.67 143.982 1274.29 143.982C1272.41 143.982 1271.09 143.154 1271.09 139.131C1271.09 135.108 1272.41 134.28 1274.29 134.28C1275.66 134.28 1276.77 134.694 1277.05 136.917C1277.07 137.079 1277.18 137.151 1277.32 137.151L1278.18 137.151C1278.36 137.151 1278.43 137.043 1278.42 136.845C1278.18 133.686 1276.4 132.876 1274.26 132.876C1271.35 132.876 1269.66 134.406 1269.66 139.131C1269.66 143.856 1271.35 145.386 1274.26 145.386Z"/>
<path clip-path="url(#TextBounds_2)" d="M1287.61 145.116C1287.77 145.116 1287.88 145.008 1287.88 144.846L1287.88 134.397L1291.52 134.397C1291.68 134.397 1291.79 134.289 1291.79 134.127L1291.79 133.326C1291.79 133.164 1291.68 133.056 1291.52 133.056L1282.79 133.056C1282.63 133.056 1282.52 133.164 1282.52 133.326L1282.52 134.127C1282.52 134.289 1282.63 134.397 1282.79 134.397L1286.42 134.397L1286.42 144.846C1286.42 145.008 1286.53 145.116 1286.69 145.116L1287.61 145.116Z"/>
<path clip-path="url(#TextBounds_2)" d="M1297.93 147.456C1298.07 147.456 1298.19 147.384 1298.25 147.24L1304.46 132.552C1304.53 132.372 1304.44 132.246 1304.25 132.246L1302.52 132.246C1302.37 132.246 1302.27 132.318 1302.2 132.462L1295.98 147.15C1295.9 147.348 1296 147.456 1296.2 147.456L1297.93 147.456Z"/>
<path clip-path="url(#TextBounds_2)" d="M1311.14 145.116C1311.3 145.116 1311.41 145.008 1311.41 144.846L1311.41 141.156L1313.63 141.156L1315.52 144.909C1315.6 145.053 1315.69 145.116 1315.84 145.116L1317.63 145.116C1317.84 145.116 1317.93 144.99 1317.83 144.801L1315.79 140.796C1317.28 140.202 1317.93 138.906 1317.93 137.106C1317.93 134.559 1316.65 133.056 1313.54 133.056L1309.33 133.056C1309.17 133.056 1309.06 133.164 1309.06 133.326L1309.06 144.846C1309.06 145.008 1309.17 145.116 1309.33 145.116L1311.14 145.116ZM1311.41 135.144L1313.42 135.144C1314.85 135.144 1315.67 135.603 1315.67 137.106C1315.67 138.6 1314.85 139.068 1313.42 139.068L1311.41 139.068L1311.41 135.144Z"/>
<path clip-path="url(#TextBounds_2)" d="M1330.22 145.116C1330.39 145.116 1330.49 145.008 1330.49 144.846L1330.49 143.298C1330.49 143.136 1330.39 143.028 1330.22 143.028L1324.59 143.028L1324.59 140.085L1329.8 140.085C1329.96 140.085 1330.07 139.977 1330.07 139.815L1330.07 138.267C1330.07 138.105 1329.96 137.997 1329.8 137.997L1324.59 137.997L1324.59 135.144L1330.21 135.144C1330.37 135.144 1330.48 135.036 1330.48 134.874L1330.48 133.326C1330.48 133.164 1330.37 133.056 1330.21 133.056L1322.51 133.056C1322.35 133.056 1322.24 133.164 1322.24 133.326L1322.24 144.846C1322.24 145.008 1322.35 145.116 1322.51 145.116L1330.22 145.116Z"/>
<path clip-path="url(#TextBounds_2)" d="M1339.36 145.386C1342.38 145.386 1343.99 144.108 1343.99 141.786C1343.99 139.131 1341.96 138.537 1339.81 138.069C1337.88 137.655 1337.43 137.088 1337.43 136.35C1337.43 135.45 1338.12 134.955 1339.41 134.955C1340.7 134.955 1341.42 135.441 1341.58 136.305C1341.61 136.449 1341.68 136.557 1341.84 136.557L1343.4 136.557C1343.56 136.557 1343.67 136.431 1343.65 136.251C1343.43 133.857 1341.93 132.876 1339.47 132.876C1336.53 132.876 1335.14 134.262 1335.14 136.269C1335.14 138.69 1337.14 139.545 1339.23 139.986C1341.14 140.391 1341.68 140.895 1341.68 141.75C1341.68 142.902 1340.69 143.307 1339.45 143.307C1338.07 143.307 1337.25 142.776 1337.07 141.777C1337.05 141.633 1336.98 141.516 1336.81 141.516L1335.13 141.516C1334.97 141.516 1334.86 141.651 1334.88 141.831C1335.07 144.378 1336.72 145.386 1339.36 145.386Z"/>
<path clip-path="url(#TextBounds_2)" d="M1352.5 145.386C1355.32 145.386 1356.89 143.955 1356.89 141.03L1356.89 133.326C1356.89 133.164 1356.78 133.056 1356.62 133.056L1354.81 133.056C1354.64 133.056 1354.54 133.164 1354.54 133.326L1354.54 140.841C1354.54 142.29 1353.87 143.136 1352.5 143.136C1351.13 143.136 1350.47 142.29 1350.47 140.841L1350.47 133.326C1350.47 133.164 1350.36 133.056 1350.2 133.056L1348.39 133.056C1348.23 133.056 1348.12 133.164 1348.12 133.326L1348.12 141.03C1348.12 143.955 1349.69 145.386 1352.5 145.386Z"/>
<path clip-path="url(#TextBounds_2)" d="M1362.81 145.116C1362.97 145.116 1363.08 145.008 1363.08 144.846L1363.08 137.835L1363.21 137.835L1364.71 144C1364.74 144.144 1364.89 144.216 1365.03 144.216L1366.12 144.216C1366.27 144.216 1366.4 144.144 1366.44 144L1367.94 137.835L1368.07 137.835L1368.07 144.846C1368.07 145.008 1368.17 145.116 1368.34 145.116L1369.73 145.116C1369.89 145.116 1370 145.008 1370 144.846L1370 133.326C1370 133.164 1369.89 133.056 1369.73 133.056L1367.86 133.056C1367.71 133.056 1367.56 133.11 1367.53 133.236L1365.64 141.57L1365.51 141.57L1363.61 133.236C1363.58 133.11 1363.43 133.056 1363.29 133.056L1361.41 133.056C1361.25 133.056 1361.14 133.164 1361.14 133.326L1361.14 144.846C1361.14 145.008 1361.25 145.116 1361.41 145.116L1362.81 145.116Z"/>
<path clip-path="url(#TextBounds_2)" d="M1382.5 145.116C1382.67 145.116 1382.77 145.008 1382.77 144.846L1382.77 143.298C1382.77 143.136 1382.67 143.028 1382.5 143.028L1376.87 143.028L1376.87 140.085L1382.08 140.085C1382.24 140.085 1382.35 139.977 1382.35 139.815L1382.35 138.267C1382.35 138.105 1382.24 137.997 1382.08 137.997L1376.87 137.997L1376.87 135.144L1382.49 135.144C1382.65 135.144 1382.76 135.036 1382.76 134.874L1382.76 133.326C1382.76 133.164 1382.65 133.056 1382.49 133.056L1374.79 133.056C1374.63 133.056 1374.52 133.164 1374.52 133.326L1374.52 144.846C1374.52 145.008 1374.63 145.116 1374.79 145.116L1382.5 145.116Z"/>
</g>
<g fill="#fcf3c0" opacity="1" stroke="none">
<path clip-path="url(#TextBounds_3)" d="M1173.57 182.232C1173.73 182.232 1173.84 182.124 1173.84 181.962L1173.84 181.161C1173.84 180.999 1173.73 180.891 1173.57 180.891L1170.25 180.891L1170.25 171.513L1173.57 171.513C1173.73 171.513 1173.84 171.405 1173.84 171.243L1173.84 170.442C1173.84 170.28 1173.73 170.172 1173.57 170.172L1165.47 170.172C1165.31 170.172 1165.2 170.28 1165.2 170.442L1165.2 171.243C1165.2 171.405 1165.31 171.513 1165.47 171.513L1168.79 171.513L1168.79 180.891L1165.47 180.891C1165.31 180.891 1165.2 180.999 1165.2 181.161L1165.2 181.962C1165.2 182.124 1165.31 182.232 1165.47 182.232L1173.57 182.232Z"/>
<path clip-path="url(#TextBounds_3)" d="M1183.49 182.232C1183.64 182.232 1183.77 182.16 1183.82 182.016L1187.49 170.478C1187.53 170.298 1187.47 170.172 1187.27 170.172L1186.36 170.172C1186.22 170.172 1186.11 170.226 1186.06 170.388L1182.81 180.729L1182.38 180.729L1179.13 170.388C1179.07 170.226 1178.97 170.172 1178.82 170.172L1177.91 170.172C1177.72 170.172 1177.65 170.298 1177.7 170.478L1181.37 182.016C1181.41 182.16 1181.55 182.232 1181.69 182.232L1183.49 182.232Z"/>
<path clip-path="url(#TextBounds_3)" d="M1199.28 170.172C1199.13 170.172 1199.02 170.226 1198.95 170.352L1195.66 176.166L1192.37 170.352C1192.31 170.226 1192.19 170.172 1192.05 170.172L1191.07 170.172C1190.86 170.172 1190.78 170.316 1190.89 170.496L1194.93 177.543L1194.93 181.962C1194.93 182.124 1195.04 182.232 1195.2 182.232L1196.12 182.232C1196.28 182.232 1196.39 182.124 1196.39 181.962L1196.39 177.543L1200.43 170.496C1200.54 170.316 1200.47 170.172 1200.25 170.172L1199.28 170.172Z"/>
<path clip-path="url(#TextBounds_3)" d="M1208.73 182.466C1209.59 182.466 1210.24 181.8 1210.24 180.954C1210.24 180.108 1209.59 179.442 1208.73 179.442C1207.88 179.442 1207.22 180.108 1207.22 180.954C1207.22 181.8 1207.88 182.466 1208.73 182.466Z"/>
<path clip-path="url(#TextBounds_3)" d="M1220.93 182.232C1225.2 182.232 1226.32 179.829 1226.32 176.202C1226.32 172.575 1225.2 170.172 1220.93 170.172L1217.83 170.172C1217.67 170.172 1217.56 170.28 1217.56 170.442L1217.56 181.962C1217.56 182.124 1217.67 182.232 1217.83 182.232L1220.93 182.232ZM1219.02 171.513L1220.88 171.513C1224.19 171.513 1224.84 173.25 1224.84 176.202C1224.84 179.154 1224.19 180.891 1220.88 180.891L1219.02 180.891L1219.02 171.513Z"/>
<path clip-path="url(#TextBounds_3)" d="M1238.92 182.232C1239.08 182.232 1239.19 182.124 1239.19 181.962L1239.19 181.161C1239.19 180.999 1239.08 180.891 1238.92 180.891L1235.6 180.891L1235.6 171.513L1238.92 171.513C1239.08 171.513 1239.19 171.405 1239.19 171.243L1239.19 170.442C1239.19 170.28 1239.08 170.172 1238.92 170.172L1230.82 170.172C1230.66 170.172 1230.55 170.28 1230.55 170.442L1230.55 171.243C1230.55 171.405 1230.66 171.513 1230.82 171.513L1234.14 171.513L1234.14 180.891L1230.82 180.891C1230.66 180.891 1230.55 180.999 1230.55 181.161L1230.55 181.962C1230.55 182.124 1230.66 182.232 1230.82 182.232L1238.92 182.232Z"/>
<path clip-path="url(#TextBounds_3)" d="M1245.12 182.232C1245.28 182.232 1245.39 182.124 1245.39 181.962L1245.39 177.912L1248.49 177.912L1250.69 182.034C1250.76 182.169 1250.86 182.232 1251 182.232L1251.97 182.232C1252.17 182.232 1252.26 182.106 1252.16 181.917L1249.9 177.696C1251.59 177.201 1252.33 175.86 1252.33 174.042C1252.33 171.711 1251.11 170.172 1248.25 170.172L1244.2 170.172C1244.04 170.172 1243.93 170.28 1243.93 170.442L1243.93 181.962C1243.93 182.124 1244.04 182.232 1244.2 182.232L1245.12 182.232ZM1245.39 171.513L1248.07 171.513C1249.83 171.513 1250.9 172.134 1250.9 174.042C1250.9 175.95 1249.83 176.571 1248.07 176.571L1245.39 176.571L1245.39 171.513Z"/>
<path clip-path="url(#TextBounds_3)" d="M1264.8 182.232C1264.96 182.232 1265.07 182.124 1265.07 181.962L1265.07 181.161C1265.07 180.999 1264.96 180.891 1264.8 180.891L1258.42 180.891L1258.42 176.733L1264.38 176.733C1264.54 176.733 1264.65 176.625 1264.65 176.463L1264.65 175.662C1264.65 175.5 1264.54 175.392 1264.38 175.392L1258.42 175.392L1258.42 171.513L1264.78 171.513C1264.95 171.513 1265.05 171.405 1265.05 171.243L1265.05 170.442C1265.05 170.28 1264.95 170.172 1264.78 170.172L1257.23 170.172C1257.07 170.172 1256.96 170.28 1256.96 170.442L1256.96 181.962C1256.96 182.124 1257.07 182.232 1257.23 182.232L1264.8 182.232Z"/>
<path clip-path="url(#TextBounds_3)" d="M1274.26 182.502C1276.4 182.502 1278.18 181.692 1278.42 179.064C1278.43 178.875 1278.36 178.767 1278.18 178.767L1277.32 178.767C1277.18 178.767 1277.07 178.839 1277.05 179.001C1276.77 180.684 1275.67 181.098 1274.29 181.098C1272.41 181.098 1271.09 180.27 1271.09 176.247C1271.09 172.224 1272.41 171.396 1274.29 171.396C1275.66 171.396 1276.77 171.81 1277.05 174.033C1277.07 174.195 1277.18 174.267 1277.32 174.267L1278.18 174.267C1278.36 174.267 1278.43 174.159 1278.42 173.961C1278.18 170.802 1276.4 169.992 1274.26 169.992C1271.35 169.992 1269.66 171.522 1269.66 176.247C1269.66 180.972 1271.35 182.502 1274.26 182.502Z"/>
<path clip-path="url(#TextBounds_3)" d="M1287.61 182.232C1287.77 182.232 1287.88 182.124 1287.88 181.962L1287.88 171.513L1291.52 171.513C1291.68 171.513 1291.79 171.405 1291.79 171.243L1291.79 170.442C1291.79 170.28 1291.68 170.172 1291.52 170.172L1282.79 170.172C1282.63 170.172 1282.52 170.28 1282.52 170.442L1282.52 171.243C1282.52 171.405 1282.63 171.513 1282.79 171.513L1286.42 171.513L1286.42 181.962C1286.42 182.124 1286.53 182.232 1286.69 182.232L1287.61 182.232Z"/>
<path clip-path="url(#TextBounds_3)" d="M1297.93 184.572C1298.07 184.572 1298.19 184.5 1298.25 184.356L1304.46 169.668C1304.53 169.488 1304.44 169.362 1304.25 169.362L1302.52 169.362C1302.37 169.362 1302.27 169.434 1302.2 169.578L1295.98 184.266C1295.9 184.464 1296 184.572 1296.2 184.572L1297.93 184.572Z"/>
<path clip-path="url(#TextBounds_3)" d="M1313.45 182.502C1316.07 182.502 1317.68 181.404 1317.85 178.416C1317.86 178.236 1317.77 178.128 1317.59 178.128L1315.95 178.128C1315.79 178.128 1315.68 178.191 1315.66 178.362C1315.43 179.856 1314.69 180.252 1313.44 180.252C1311.88 180.252 1311.01 179.523 1311.01 176.247C1311.01 172.971 1311.88 172.242 1313.44 172.242C1314.61 172.242 1315.43 172.638 1315.66 174.636C1315.68 174.798 1315.79 174.87 1315.95 174.87L1317.59 174.87C1317.77 174.87 1317.86 174.762 1317.85 174.573C1317.68 171.09 1316.07 169.992 1313.45 169.992C1310.1 169.992 1308.73 171.801 1308.73 176.247C1308.73 180.684 1310.1 182.502 1313.45 182.502Z"/>
<path clip-path="url(#TextBounds_3)" d="M1324.21 182.232C1324.37 182.232 1324.48 182.124 1324.48 181.962L1324.48 178.272L1326.7 178.272L1328.59 182.025C1328.67 182.169 1328.76 182.232 1328.91 182.232L1330.7 182.232C1330.91 182.232 1331 182.106 1330.9 181.917L1328.86 177.912C1330.35 177.318 1331 176.022 1331 174.222C1331 171.675 1329.72 170.172 1326.61 170.172L1322.4 170.172C1322.24 170.172 1322.13 170.28 1322.13 170.442L1322.13 181.962C1322.13 182.124 1322.24 182.232 1322.4 182.232L1324.21 182.232ZM1324.48 172.26L1326.49 172.26C1327.92 172.26 1328.74 172.719 1328.74 174.222C1328.74 175.716 1327.92 176.184 1326.49 176.184L1324.48 176.184L1324.48 172.26Z"/>
<path clip-path="url(#TextBounds_3)" d="M1343.29 182.232C1343.46 182.232 1343.56 182.124 1343.56 181.962L1343.56 180.414C1343.56 180.252 1343.46 180.144 1343.29 180.144L1337.66 180.144L1337.66 177.201L1342.87 177.201C1343.03 177.201 1343.14 177.093 1343.14 176.931L1343.14 175.383C1343.14 175.221 1343.03 175.113 1342.87 175.113L1337.66 175.113L1337.66 172.26L1343.28 172.26C1343.44 172.26 1343.55 172.152 1343.55 171.99L1343.55 170.442C1343.55 170.28 1343.44 170.172 1343.28 170.172L1335.58 170.172C1335.42 170.172 1335.31 170.28 1335.31 170.442L1335.31 181.962C1335.31 182.124 1335.42 182.232 1335.58 182.232L1343.29 182.232Z"/>
<path clip-path="url(#TextBounds_3)" d="M1354.28 170.388C1354.23 170.244 1354.1 170.172 1353.96 170.172L1351.04 170.172C1350.9 170.172 1350.77 170.244 1350.73 170.388L1347.59 181.926C1347.53 182.106 1347.61 182.232 1347.8 182.232L1349.63 182.232C1349.78 182.232 1349.9 182.178 1349.94 182.016L1350.48 179.883L1354.53 179.883L1355.07 182.016C1355.1 182.178 1355.23 182.232 1355.37 182.232L1357.21 182.232C1357.41 182.232 1357.47 182.106 1357.43 181.926L1354.28 170.388ZM1352.34 172.602L1352.66 172.602L1354.01 177.876L1350.99 177.876L1352.34 172.602Z"/>
<path clip-path="url(#TextBounds_3)" d="M1366.48 182.232C1366.64 182.232 1366.75 182.124 1366.75 181.962L1366.75 172.26L1369.94 172.26C1370.1 172.26 1370.21 172.152 1370.21 171.99L1370.21 170.442C1370.21 170.28 1370.1 170.172 1369.94 170.172L1361.21 170.172C1361.05 170.172 1360.94 170.28 1360.94 170.442L1360.94 171.99C1360.94 172.152 1361.05 172.26 1361.21 172.26L1364.39 172.26L1364.39 181.962C1364.39 182.124 1364.5 182.232 1364.66 182.232L1366.48 182.232Z"/>
<path clip-path="url(#TextBounds_3)" d="M1382.5 182.232C1382.67 182.232 1382.77 182.124 1382.77 181.962L1382.77 180.414C1382.77 180.252 1382.67 180.144 1382.5 180.144L1376.87 180.144L1376.87 177.201L1382.08 177.201C1382.24 177.201 1382.35 177.093 1382.35 176.931L1382.35 175.383C1382.35 175.221 1382.24 175.113 1382.08 175.113L1376.87 175.113L1376.87 172.26L1382.49 172.26C1382.65 172.26 1382.76 172.152 1382.76 171.99L1382.76 170.442C1382.76 170.28 1382.65 170.172 1382.49 170.172L1374.79 170.172C1374.63 170.172 1374.52 170.28 1374.52 170.442L1374.52 181.962C1374.52 182.124 1374.63 182.232 1374.79 182.232L1382.5 182.232Z"/>
</g>
<g fill="#fcf3c0" opacity="1" stroke="none">
<path clip-path="url(#TextBounds_4)" d="M1298.7 69.241C1300.66 69.241 1301.69 68.137 1301.69 65.071C1301.69 62.005 1300.66 60.901 1298.7 60.901C1296.74 60.901 1295.71 62.005 1295.71 65.071C1295.71 68.137 1296.74 69.241 1298.7 69.241ZM1298.7 68.053C1297.66 68.053 1296.91 67.531 1296.91 65.071C1296.91 62.611 1297.66 62.089 1298.7 62.089C1299.74 62.089 1300.49 62.611 1300.49 65.071C1300.49 67.531 1299.74 68.053 1298.7 68.053Z"/>
<path clip-path="url(#TextBounds_4)" d="M1303.49 61.021C1303.38 61.021 1303.31 61.093 1303.31 61.201L1303.31 68.881C1303.31 68.989 1303.38 69.061 1303.49 69.061L1304.36 69.061C1304.47 69.061 1304.54 68.989 1304.54 68.881L1304.54 66.289L1306.24 66.289C1308.22 66.289 1309.04 65.263 1309.04 63.655C1309.04 62.035 1308.22 61.021 1306.24 61.021L1303.49 61.021ZM1304.54 65.173L1304.54 62.137L1306.13 62.137C1307.21 62.137 1307.86 62.497 1307.86 63.655C1307.86 64.807 1307.21 65.173 1306.13 65.173L1304.54 65.173Z"/>
<path clip-path="url(#TextBounds_4)" d="M1316 69.061C1316.11 69.061 1316.18 68.989 1316.18 68.881L1316.18 68.125C1316.18 68.017 1316.11 67.945 1316 67.945L1311.97 67.945L1311.97 65.533L1315.73 65.533C1315.84 65.533 1315.91 65.461 1315.91 65.353L1315.91 64.597C1315.91 64.489 1315.84 64.417 1315.73 64.417L1311.97 64.417L1311.97 62.137L1315.99 62.137C1316.1 62.137 1316.17 62.065 1316.17 61.957L1316.17 61.201C1316.17 61.093 1316.1 61.021 1315.99 61.021L1310.92 61.021C1310.81 61.021 1310.74 61.093 1310.74 61.201L1310.74 68.881C1310.74 68.989 1310.81 69.061 1310.92 69.061L1316 69.061Z"/>
<path clip-path="url(#TextBounds_4)" d="M1322.66 61.021C1322.55 61.021 1322.48 61.093 1322.48 61.201L1322.48 67.261L1319.56 61.141C1319.52 61.057 1319.44 61.021 1319.35 61.021L1318.25 61.021C1318.15 61.021 1318.07 61.093 1318.07 61.201L1318.07 68.881C1318.07 68.989 1318.15 69.061 1318.25 69.061L1319.02 69.061C1319.13 69.061 1319.2 68.989 1319.2 68.881L1319.2 62.809L1322.13 68.941C1322.17 69.025 1322.25 69.061 1322.35 69.061L1323.43 69.061C1323.53 69.061 1323.61 68.989 1323.61 68.881L1323.61 61.201C1323.61 61.093 1323.53 61.021 1323.43 61.021L1322.66 61.021Z"/>
<path clip-path="url(#TextBounds_4)" d="M1336.04 69.061C1336.15 69.061 1336.22 68.989 1336.22 68.881L1336.22 62.137L1338.51 62.137C1338.62 62.137 1338.69 62.065 1338.69 61.957L1338.69 61.201C1338.69 61.093 1338.62 61.021 1338.51 61.021L1332.69 61.021C1332.58 61.021 1332.51 61.093 1332.51 61.201L1332.51 61.957C1332.51 62.065 1332.58 62.137 1332.69 62.137L1334.98 62.137L1334.98 68.881C1334.98 68.989 1335.05 69.061 1335.16 69.061L1336.04 69.061Z"/>
<path clip-path="url(#TextBounds_4)" d="M1342.98 69.241C1344.94 69.241 1345.97 68.137 1345.97 65.071C1345.97 62.005 1344.94 60.901 1342.98 60.901C1341.02 60.901 1339.99 62.005 1339.99 65.071C1339.99 68.137 1341.02 69.241 1342.98 69.241ZM1342.98 68.053C1341.94 68.053 1341.19 67.531 1341.19 65.071C1341.19 62.611 1341.94 62.089 1342.98 62.089C1344.02 62.089 1344.77 62.611 1344.77 65.071C1344.77 67.531 1344.02 68.053 1342.98 68.053Z"/>
<path clip-path="url(#TextBounds_4)" d="M1360.06 61.021C1359.96 61.021 1359.86 61.057 1359.85 61.165L1359.14 67.495L1358.17 61.885C1358.15 61.777 1358.06 61.741 1357.97 61.741L1357.51 61.741C1357.42 61.741 1357.33 61.777 1357.31 61.885L1356.34 67.495L1355.63 61.165C1355.62 61.057 1355.52 61.021 1355.42 61.021L1354.63 61.021C1354.49 61.021 1354.46 61.105 1354.48 61.225L1355.49 68.917C1355.5 69.013 1355.62 69.061 1355.71 69.061L1356.76 69.061C1356.85 69.061 1356.95 69.013 1356.97 68.917L1357.74 64.207L1358.51 68.917C1358.53 69.013 1358.63 69.061 1358.72 69.061L1359.77 69.061C1359.86 69.061 1359.98 69.013 1359.99 68.917L1361 61.225C1361.02 61.105 1360.99 61.021 1360.85 61.021L1360.06 61.021Z"/>
<path clip-path="url(#TextBounds_4)" d="M1365.12 69.241C1367.08 69.241 1368.11 68.137 1368.11 65.071C1368.11 62.005 1367.08 60.901 1365.12 60.901C1363.16 60.901 1362.13 62.005 1362.13 65.071C1362.13 68.137 1363.16 69.241 1365.12 69.241ZM1365.12 68.053C1364.08 68.053 1363.33 67.531 1363.33 65.071C1363.33 62.611 1364.08 62.089 1365.12 62.089C1366.16 62.089 1366.91 62.611 1366.91 65.071C1366.91 67.531 1366.16 68.053 1365.12 68.053Z"/>
<path clip-path="url(#TextBounds_4)" d="M1370.81 69.061C1370.92 69.061 1370.99 68.989 1370.99 68.881L1370.99 66.289L1372.81 66.289L1374.18 68.929C1374.23 69.019 1374.29 69.061 1374.39 69.061L1375.27 69.061C1375.41 69.061 1375.48 68.977 1375.41 68.851L1373.96 66.103C1375.03 65.737 1375.49 64.861 1375.49 63.655C1375.49 62.035 1374.67 61.021 1372.69 61.021L1369.94 61.021C1369.83 61.021 1369.76 61.093 1369.76 61.201L1369.76 68.881C1369.76 68.989 1369.83 69.061 1369.94 69.061L1370.81 69.061ZM1370.99 62.137L1372.58 62.137C1373.66 62.137 1374.31 62.497 1374.31 63.655C1374.31 64.807 1373.66 65.173 1372.58 65.173L1370.99 65.173L1370.99 62.137Z"/>
<path clip-path="url(#TextBounds_4)" d="M1379.96 64.705L1382.83 61.237C1382.93 61.123 1382.89 61.021 1382.74 61.021L1381.66 61.021C1381.57 61.021 1381.5 61.045 1381.44 61.117L1378.18 65.155L1378.18 61.201C1378.18 61.093 1378.11 61.021 1378 61.021L1377.13 61.021C1377.02 61.021 1376.95 61.093 1376.95 61.201L1376.95 68.881C1376.95 68.989 1377.02 69.061 1377.13 69.061L1378 69.061C1378.11 69.061 1378.18 68.989 1378.18 68.881L1378.18 66.847L1379.22 65.599L1381.7 68.953C1381.76 69.037 1381.82 69.061 1381.92 69.061L1382.9 69.061C1383.05 69.061 1383.1 68.965 1383.01 68.845L1379.96 64.705Z"/>
</g>
<path d="M1287.39 65.061L1137.39 65.061L1137.39 64.061L1287.39 64.061L1287.39 65.061Z" fill="#fcf3c0" fill-rule="nonzero" opacity="1" stroke="none"/>
<path d="M1071.77 64.061L271.766 64.061L271.766 63.061L1071.77 63.061L1071.77 64.061Z" fill="#fcf3c0" fill-rule="nonzero" opacity="1" stroke="none"/>
<g fill="#fcf3c0" opacity="1" stroke="none">
<path clip-path="url(#TextBounds_5)" d="M273.36 179.981L284.371 179.981C285.064 179.981 285.603 179.442 285.603 178.749L285.603 127.313C285.603 126.62 285.064 126.081 284.371 126.081L273.36 126.081C272.667 126.081 272.205 126.62 272.205 127.313L272.205 178.749C272.205 179.442 272.667 179.981 273.36 179.981Z"/>
<path clip-path="url(#TextBounds_5)" d="M314.629 179.981L326.256 179.981C326.872 179.981 327.565 179.673 327.796 179.057L345.506 127.39C345.814 126.62 345.352 126.081 344.505 126.081L333.032 126.081C332.416 126.081 331.877 126.312 331.646 127.005L320.481 162.887L309.239 127.005C309.008 126.312 308.546 126.081 307.93 126.081L296.457 126.081C295.61 126.081 295.148 126.62 295.456 127.39L313.166 179.057C313.397 179.673 314.013 179.981 314.629 179.981Z"/>
<path clip-path="url(#TextBounds_5)" d="M369.758 179.981L380.769 179.981C381.462 179.981 382.001 179.442 382.001 178.749L382.001 155.495L397.709 127.467C398.171 126.543 397.786 126.081 396.862 126.081L385.466 126.081C384.85 126.081 384.388 126.312 384.08 126.851L375.302 143.252L366.524 126.851C366.216 126.312 365.677 126.081 365.061 126.081L353.665 126.081C352.741 126.081 352.433 126.543 352.895 127.467L368.603 155.341L368.603 178.749C368.603 179.442 369.065 179.981 369.758 179.981Z"/>
<path clip-path="url(#TextBounds_5)" d="M407.1 180.982C411.181 180.982 414.492 177.671 414.492 173.59C414.492 169.432 411.181 166.044 407.1 166.044C402.942 166.044 399.631 169.432 399.631 173.59C399.631 177.671 402.942 180.982 407.1 180.982Z"/>
<path clip-path="url(#TextBounds_5)" d="M426.27 179.981L443.98 179.981C461.69 179.981 471.469 168.046 471.469 153.031C471.469 138.016 461.69 126.081 443.98 126.081L426.27 126.081C425.577 126.081 425.115 126.62 425.115 127.313L425.115 178.749C425.115 179.442 425.577 179.981 426.27 179.981ZM438.513 168.123L438.513 137.939L443.749 137.939C452.912 137.939 457.917 143.098 457.917 153.031C457.917 162.964 452.912 168.123 443.749 168.123L438.513 168.123Z"/>
<path clip-path="url(#TextBounds_5)" d="M483.247 179.981L494.258 179.981C494.951 179.981 495.49 179.442 495.49 178.749L495.49 127.313C495.49 126.62 494.951 126.081 494.258 126.081L483.247 126.081C482.554 126.081 482.092 126.62 482.092 127.313L482.092 178.749C482.092 179.442 482.554 179.981 483.247 179.981Z"/>
<path clip-path="url(#TextBounds_5)" d="M535.142 179.981L546.846 179.981C547.77 179.981 548.155 179.442 547.616 178.595L535.989 160.038C542.534 157.266 545.614 151.414 545.614 143.945C545.614 133.319 539.377 126.081 526.133 126.081L509.193 126.081C508.5 126.081 508.038 126.62 508.038 127.313L508.038 178.749C508.038 179.442 508.5 179.981 509.193 179.981L520.204 179.981C520.897 179.981 521.436 179.442 521.436 178.749L521.436 161.809L523.13 161.809L533.756 179.211C534.064 179.75 534.526 179.981 535.142 179.981ZM521.436 149.951L521.436 137.939L525.825 137.939C529.367 137.939 532.832 138.863 532.832 143.945C532.832 149.027 529.367 149.951 525.825 149.951L521.436 149.951Z"/>
<path clip-path="url(#TextBounds_5)" d="M559.24 179.981L587.345 179.981C588.038 179.981 588.577 179.442 588.577 178.749L588.577 169.355C588.577 168.662 588.038 168.123 587.345 168.123L571.483 168.123L571.483 158.806L586.421 158.806C587.114 158.806 587.653 158.344 587.653 157.651L587.653 148.18C587.653 147.487 587.114 146.948 586.421 146.948L571.483 146.948L571.483 137.939L587.422 137.939C588.115 137.939 588.577 137.4 588.577 136.707L588.577 127.313C588.577 126.62 588.115 126.081 587.422 126.081L559.24 126.081C558.547 126.081 558.085 126.62 558.085 127.313L558.085 178.749C558.085 179.442 558.547 179.981 559.24 179.981Z"/>
<path clip-path="url(#TextBounds_5)" d="M624.841 180.982C632.618 180.982 639.24 177.825 644.014 172.743C644.553 172.204 644.245 171.665 643.86 171.28L637.084 163.965C636.622 163.426 635.929 163.426 635.467 163.811C632.618 166.275 629.076 167.815 624.841 167.815C616.679 167.815 610.442 161.732 610.442 153.262C610.442 144.792 616.679 138.632 624.841 138.632C629.076 138.632 632.618 140.172 635.467 142.636C635.929 143.021 636.622 143.021 637.007 142.482L643.86 135.167C644.245 134.705 644.553 134.166 644.014 133.627C639.24 128.622 632.618 125.465 624.841 125.465C609.672 125.465 596.89 137.323 596.89 153.262C596.89 169.201 609.672 180.982 624.841 180.982Z"/>
<path clip-path="url(#TextBounds_5)" d="M664.955 179.981L675.966 179.981C676.659 179.981 677.198 179.442 677.198 178.749L677.198 137.939L687.208 137.939C687.901 137.939 688.44 137.4 688.44 136.707L688.44 127.313C688.44 126.62 687.901 126.081 687.208 126.081L653.713 126.081C653.02 126.081 652.558 126.62 652.558 127.313L652.558 136.707C652.558 137.4 653.02 137.939 653.713 137.939L663.8 137.939L663.8 178.749C663.8 179.442 664.262 179.981 664.955 179.981Z"/>
</g>
<g fill="#fcf3c0" opacity="1" stroke="none">
<path clip-path="url(#TextBounds_6)" d="M285.167 102.703C285.419 102.703 285.587 102.535 285.587 102.283L285.587 101.037C285.587 100.785 285.419 100.617 285.167 100.617L280.001 100.617L280.001 86.0289L285.167 86.0289C285.419 86.0289 285.587 85.8609 285.587 85.6089L285.587 84.3629C285.587 84.1109 285.419 83.9429 285.167 83.9429L272.567 83.9429C272.315 83.9429 272.147 84.1109 272.147 84.3629L272.147 85.6089C272.147 85.8609 272.315 86.0289 272.567 86.0289L277.733 86.0289L277.733 100.617L272.567 100.617C272.315 100.617 272.147 100.785 272.147 101.037L272.147 102.283C272.147 102.535 272.315 102.703 272.567 102.703L285.167 102.703Z"/>
<path clip-path="url(#TextBounds_6)" d="M302.763 83.9429C302.511 83.9429 302.343 84.1109 302.343 84.3629L302.343 99.6369L294.657 84.2229C294.573 84.0269 294.377 83.9429 294.153 83.9429L292.123 83.9429C291.871 83.9429 291.703 84.1109 291.703 84.3629L291.703 102.283C291.703 102.535 291.871 102.703 292.123 102.703L293.411 102.703C293.663 102.703 293.831 102.535 293.831 102.283L293.831 86.9529L301.531 102.423C301.629 102.619 301.811 102.703 302.035 102.703L304.051 102.703C304.303 102.703 304.471 102.535 304.471 102.283L304.471 84.3629C304.471 84.1109 304.303 83.9429 304.051 83.9429L302.763 83.9429Z"/>
<path clip-path="url(#TextBounds_6)" d="M318.021 102.703C318.273 102.703 318.441 102.535 318.441 102.283L318.441 86.0289L324.097 86.0289C324.349 86.0289 324.517 85.8609 324.517 85.6089L324.517 84.3629C324.517 84.1109 324.349 83.9429 324.097 83.9429L310.517 83.9429C310.265 83.9429 310.097 84.1109 310.097 84.3629L310.097 85.6089C310.097 85.8609 310.265 86.0289 310.517 86.0289L316.173 86.0289L316.173 102.283C316.173 102.535 316.341 102.703 316.593 102.703L318.021 102.703Z"/>
<path clip-path="url(#TextBounds_6)" d="M342.421 102.703C342.673 102.703 342.841 102.535 342.841 102.283L342.841 101.037C342.841 100.785 342.673 100.617 342.421 100.617L332.495 100.617L332.495 94.1489L341.763 94.1489C342.015 94.1489 342.183 93.9809 342.183 93.7289L342.183 92.4829C342.183 92.2309 342.015 92.0629 341.763 92.0629L332.495 92.0629L332.495 86.0289L342.393 86.0289C342.645 86.0289 342.813 85.8609 342.813 85.6089L342.813 84.3629C342.813 84.1109 342.645 83.9429 342.393 83.9429L330.647 83.9429C330.395 83.9429 330.227 84.1109 330.227 84.3629L330.227 102.283C330.227 102.535 330.395 102.703 330.647 102.703L342.421 102.703Z"/>
<path clip-path="url(#TextBounds_6)" d="M351.351 102.703C351.603 102.703 351.771 102.535 351.771 102.283L351.771 95.9829L356.601 95.9829L360.017 102.395C360.129 102.605 360.283 102.703 360.507 102.703L362.005 102.703C362.327 102.703 362.467 102.507 362.313 102.213L358.799 95.6469C361.417 94.8769 362.565 92.7909 362.565 89.9629C362.565 86.3369 360.675 83.9429 356.223 83.9429L349.923 83.9429C349.671 83.9429 349.503 84.1109 349.503 84.3629L349.503 102.283C349.503 102.535 349.671 102.703 349.923 102.703L351.351 102.703ZM351.771 86.0289L355.943 86.0289C358.687 86.0289 360.353 86.9949 360.353 89.9629C360.353 92.9309 358.687 93.8969 355.943 93.8969L351.771 93.8969L351.771 86.0289Z"/>
<path clip-path="url(#TextBounds_6)" d="M376.871 84.2789C376.801 84.0549 376.591 83.9429 376.367 83.9429L373.567 83.9429C373.343 83.9429 373.133 84.0549 373.063 84.2789L367.421 102.227C367.351 102.507 367.463 102.703 367.757 102.703L369.171 102.703C369.395 102.703 369.563 102.619 369.647 102.367L370.893 98.3629L379.041 98.3629L380.287 102.367C380.371 102.619 380.539 102.703 380.763 102.703L382.177 102.703C382.485 102.703 382.583 102.507 382.513 102.227L376.871 84.2789ZM374.631 86.2669L375.303 86.2669L378.425 96.3329L371.509 96.3329L374.631 86.2669Z"/>
<path clip-path="url(#TextBounds_6)" d="M394.467 103.123C397.799 103.123 400.557 101.863 400.935 97.7749C400.949 97.4809 400.837 97.3129 400.557 97.3129L399.227 97.3129C399.003 97.3129 398.835 97.4249 398.807 97.6769C398.373 100.295 396.651 100.939 394.509 100.939C391.583 100.939 389.539 99.6509 389.539 93.3929C389.539 87.1349 391.583 85.8469 394.509 85.8469C396.637 85.8469 398.373 86.4909 398.807 89.9489C398.835 90.2009 399.003 90.3129 399.227 90.3129L400.557 90.3129C400.837 90.3129 400.949 90.1449 400.935 89.8369C400.557 84.9229 397.799 83.6629 394.467 83.6629C389.931 83.6629 387.313 86.0429 387.313 93.3929C387.313 100.743 389.931 103.123 394.467 103.123Z"/>
<path clip-path="url(#TextBounds_6)" d="M414.121 102.703C414.373 102.703 414.541 102.535 414.541 102.283L414.541 86.0289L420.197 86.0289C420.449 86.0289 420.617 85.8609 420.617 85.6089L420.617 84.3629C420.617 84.1109 420.449 83.9429 420.197 83.9429L406.617 83.9429C406.365 83.9429 406.197 84.1109 406.197 84.3629L406.197 85.6089C406.197 85.8609 406.365 86.0289 406.617 86.0289L412.273 86.0289L412.273 102.283C412.273 102.535 412.441 102.703 412.693 102.703L414.121 102.703Z"/>
<path clip-path="url(#TextBounds_6)" d="M438.927 102.703C439.179 102.703 439.347 102.535 439.347 102.283L439.347 101.037C439.347 100.785 439.179 100.617 438.927 100.617L433.761 100.617L433.761 86.0289L438.927 86.0289C439.179 86.0289 439.347 85.8609 439.347 85.6089L439.347 84.3629C439.347 84.1109 439.179 83.9429 438.927 83.9429L426.327 83.9429C426.075 83.9429 425.907 84.1109 425.907 84.3629L425.907 85.6089C425.907 85.8609 426.075 86.0289 426.327 86.0289L431.493 86.0289L431.493 100.617L426.327 100.617C426.075 100.617 425.907 100.785 425.907 101.037L425.907 102.283C425.907 102.535 426.075 102.703 426.327 102.703L438.927 102.703Z"/>
<path clip-path="url(#TextBounds_6)" d="M453.247 102.703C453.471 102.703 453.681 102.591 453.751 102.367L459.463 84.4189C459.533 84.1389 459.435 83.9429 459.127 83.9429L457.713 83.9429C457.489 83.9429 457.321 84.0269 457.237 84.2789L452.183 100.365L451.511 100.365L446.457 84.2789C446.373 84.0269 446.205 83.9429 445.981 83.9429L444.567 83.9429C444.273 83.9429 444.161 84.1389 444.231 84.4189L449.943 102.367C450.013 102.591 450.223 102.703 450.447 102.703L453.247 102.703Z"/>
<path clip-path="url(#TextBounds_6)" d="M476.961 102.703C477.213 102.703 477.381 102.535 477.381 102.283L477.381 101.037C477.381 100.785 477.213 100.617 476.961 100.617L467.035 100.617L467.035 94.1489L476.303 94.1489C476.555 94.1489 476.723 93.9809 476.723 93.7289L476.723 92.4829C476.723 92.2309 476.555 92.0629 476.303 92.0629L467.035 92.0629L467.035 86.0289L476.933 86.0289C477.185 86.0289 477.353 85.8609 477.353 85.6089L477.353 84.3629C477.353 84.1109 477.185 83.9429 476.933 83.9429L465.187 83.9429C464.935 83.9429 464.767 84.1109 464.767 84.3629L464.767 102.283C464.767 102.535 464.935 102.703 465.187 102.703L476.961 102.703Z"/>
<path clip-path="url(#TextBounds_6)" d="M503.613 83.9429C503.361 83.9429 503.193 84.1109 503.193 84.3629L503.193 102.283C503.193 102.535 503.361 102.703 503.613 102.703L505.041 102.703C505.293 102.703 505.461 102.535 505.461 102.283L505.461 95.9829L509.913 95.9829C514.365 95.9829 516.255 93.6029 516.255 89.9629C516.255 86.3369 514.365 83.9429 509.913 83.9429L503.613 83.9429ZM505.461 93.8969L505.461 86.0289L509.633 86.0289C512.377 86.0289 514.043 86.9949 514.043 89.9629C514.043 92.9309 512.377 93.8969 509.633 93.8969L505.461 93.8969Z"/>
<path clip-path="url(#TextBounds_6)" d="M528.727 103.123C532.997 103.123 535.601 100.743 535.601 93.3929C535.601 86.0429 532.997 83.6629 528.727 83.6629C524.457 83.6629 521.853 86.0429 521.853 93.3929C521.853 100.743 524.457 103.123 528.727 103.123ZM528.727 100.925C526.095 100.925 524.079 99.6229 524.079 93.3929C524.079 87.1629 526.095 85.8609 528.727 85.8609C531.359 85.8609 533.375 87.1629 533.375 93.3929C533.375 99.6229 531.359 100.925 528.727 100.925Z"/>
<path clip-path="url(#TextBounds_6)" d="M543.551 102.703C543.803 102.703 543.971 102.535 543.971 102.283L543.971 95.9829L548.801 95.9829L552.217 102.395C552.329 102.605 552.483 102.703 552.707 102.703L554.205 102.703C554.527 102.703 554.667 102.507 554.513 102.213L550.999 95.6469C553.617 94.8769 554.765 92.7909 554.765 89.9629C554.765 86.3369 552.875 83.9429 548.423 83.9429L542.123 83.9429C541.871 83.9429 541.703 84.1109 541.703 84.3629L541.703 102.283C541.703 102.535 541.871 102.703 542.123 102.703L543.551 102.703ZM543.971 86.0289L548.143 86.0289C550.887 86.0289 552.553 86.9949 552.553 89.9629C552.553 92.9309 550.887 93.8969 548.143 93.8969L543.971 93.8969L543.971 86.0289Z"/>
<path clip-path="url(#TextBounds_6)" d="M567.881 102.703C568.133 102.703 568.301 102.535 568.301 102.283L568.301 86.0289L573.957 86.0289C574.209 86.0289 574.377 85.8609 574.377 85.6089L574.377 84.3629C574.377 84.1109 574.209 83.9429 573.957 83.9429L560.377 83.9429C560.125 83.9429 559.957 84.1109 559.957 84.3629L559.957 85.6089C559.957 85.8609 560.125 86.0289 560.377 86.0289L566.033 86.0289L566.033 102.283C566.033 102.535 566.201 102.703 566.453 102.703L567.881 102.703Z"/>
<path clip-path="url(#TextBounds_6)" d="M581.795 102.703C582.047 102.703 582.215 102.535 582.215 102.283L582.215 95.3389L591.763 95.3389C592.015 95.3389 592.183 95.1709 592.183 94.9189L592.183 93.6589C592.183 93.4069 592.015 93.2389 591.763 93.2389L582.215 93.2389L582.215 86.0289L592.407 86.0289C592.659 86.0289 592.827 85.8609 592.827 85.6089L592.827 84.3629C592.827 84.1109 592.659 83.9429 592.407 83.9429L580.367 83.9429C580.115 83.9429 579.947 84.1109 579.947 84.3629L579.947 102.283C579.947 102.535 580.115 102.703 580.367 102.703L581.795 102.703Z"/>
<path clip-path="url(#TextBounds_6)" d="M605.607 103.123C609.877 103.123 612.481 100.743 612.481 93.3929C612.481 86.0429 609.877 83.6629 605.607 83.6629C601.337 83.6629 598.733 86.0429 598.733 93.3929C598.733 100.743 601.337 103.123 605.607 103.123ZM605.607 100.925C602.975 100.925 600.959 99.6229 600.959 93.3929C600.959 87.1629 602.975 85.8609 605.607 85.8609C608.239 85.8609 610.255 87.1629 610.255 93.3929C610.255 99.6229 608.239 100.925 605.607 100.925Z"/>
<path clip-path="url(#TextBounds_6)" d="M630.931 102.703C631.183 102.703 631.351 102.535 631.351 102.283L631.351 101.037C631.351 100.785 631.183 100.617 630.931 100.617L621.005 100.617L621.005 84.3629C621.005 84.1109 620.837 83.9429 620.585 83.9429L619.157 83.9429C618.891 83.9429 618.737 84.1109 618.737 84.3629L618.737 102.283C618.737 102.535 618.891 102.703 619.157 102.703L630.931 102.703Z"/>
<path clip-path="url(#TextBounds_6)" d="M650.347 102.703C650.599 102.703 650.767 102.535 650.767 102.283L650.767 101.037C650.767 100.785 650.599 100.617 650.347 100.617L645.181 100.617L645.181 86.0289L650.347 86.0289C650.599 86.0289 650.767 85.8609 650.767 85.6089L650.767 84.3629C650.767 84.1109 650.599 83.9429 650.347 83.9429L637.747 83.9429C637.495 83.9429 637.327 84.1109 637.327 84.3629L637.327 85.6089C637.327 85.8609 637.495 86.0289 637.747 86.0289L642.913 86.0289L642.913 100.617L637.747 100.617C637.495 100.617 637.327 100.785 637.327 101.037L637.327 102.283C637.327 102.535 637.495 102.703 637.747 102.703L650.347 102.703Z"/>
<path clip-path="url(#TextBounds_6)" d="M663.267 103.123C667.537 103.123 670.141 100.743 670.141 93.3929C670.141 86.0429 667.537 83.6629 663.267 83.6629C658.997 83.6629 656.393 86.0429 656.393 93.3929C656.393 100.743 658.997 103.123 663.267 103.123ZM663.267 100.925C660.635 100.925 658.619 99.6229 658.619 93.3929C658.619 87.1629 660.635 85.8609 663.267 85.8609C665.899 85.8609 667.915 87.1629 667.915 93.3929C667.915 99.6229 665.899 100.925 663.267 100.925Z"/>
<path clip-path="url(#TextBounds_6)" d="M701.735 97.3269C703.737 97.3269 705.389 95.7029 705.389 93.6729C705.389 91.6289 703.737 90.0189 701.735 90.0189C699.705 90.0189 698.053 91.6289 698.053 93.6729C698.053 95.7029 699.705 97.3269 701.735 97.3269Z"/>
<path clip-path="url(#TextBounds_6)" d="M745.817 102.703C746.069 102.703 746.237 102.535 746.237 102.283L746.237 101.163C746.237 100.911 746.069 100.743 745.817 100.743L736.045 100.743C736.045 93.9389 746.251 95.8709 746.251 88.8989C746.251 85.8749 744.305 83.6629 740.063 83.6629C736.101 83.6629 733.749 85.6089 733.749 89.0949C733.749 89.3609 733.917 89.5569 734.169 89.5569L735.415 89.5569C735.667 89.5569 735.849 89.4309 735.863 89.1509C735.961 86.9109 737.333 85.6369 740.049 85.6369C743.031 85.6369 744.207 87.1629 744.207 88.9689C744.207 94.3449 733.833 92.5949 733.833 100.855L733.833 102.283C733.833 102.535 734.001 102.703 734.253 102.703L745.817 102.703Z"/>
<path clip-path="url(#TextBounds_6)" d="M759.367 103.123C764.085 103.123 766.171 100.925 766.171 93.3929C766.171 85.8609 764.085 83.6629 759.367 83.6629C754.649 83.6629 752.563 85.8609 752.563 93.3929C752.563 100.925 754.649 103.123 759.367 103.123ZM759.367 100.981C756.245 100.981 754.733 99.8469 754.733 93.3929C754.733 86.9389 756.245 85.8049 759.367 85.8049C762.489 85.8049 764.001 86.9389 764.001 93.3929C764.001 99.8469 762.489 100.981 759.367 100.981ZM758.863 95.8989L761.551 90.8869L759.899 90.8869L757.211 95.8989L758.863 95.8989Z"/>
<path clip-path="url(#TextBounds_6)" d="M784.257 102.703C784.509 102.703 784.677 102.535 784.677 102.283L784.677 101.163C784.677 100.911 784.509 100.743 784.257 100.743L774.485 100.743C774.485 93.9389 784.691 95.8709 784.691 88.8989C784.691 85.8749 782.745 83.6629 778.503 83.6629C774.541 83.6629 772.189 85.6089 772.189 89.0949C772.189 89.3609 772.357 89.5569 772.609 89.5569L773.855 89.5569C774.107 89.5569 774.289 89.4309 774.303 89.1509C774.401 86.9109 775.773 85.6369 778.489 85.6369C781.471 85.6369 782.647 87.1629 782.647 88.9689C782.647 94.3449 772.273 92.5949 772.273 100.855L772.273 102.283C772.273 102.535 772.441 102.703 772.693 102.703L784.257 102.703Z"/>
<path clip-path="url(#TextBounds_6)" d="M803.477 102.703C803.729 102.703 803.897 102.535 803.897 102.283L803.897 101.163C803.897 100.911 803.729 100.743 803.477 100.743L793.705 100.743C793.705 93.9389 803.911 95.8709 803.911 88.8989C803.911 85.8749 801.965 83.6629 797.723 83.6629C793.761 83.6629 791.409 85.6089 791.409 89.0949C791.409 89.3609 791.577 89.5569 791.829 89.5569L793.075 89.5569C793.327 89.5569 793.509 89.4309 793.523 89.1509C793.621 86.9109 794.993 85.6369 797.709 85.6369C800.691 85.6369 801.867 87.1629 801.867 88.9689C801.867 94.3449 791.493 92.5949 791.493 100.855L791.493 102.283C791.493 102.535 791.661 102.703 791.913 102.703L803.477 102.703Z"/>
</g>
<g opacity="1">
<path d="M56.3971 180.024C55.8211 180.024 55.3161 179.736 55.1721 179.16L43.6081 132.974C43.4281 132.253 43.6801 131.75 44.4731 131.75L54.1271 131.75C54.7041 131.75 55.2091 131.965 55.3531 132.614L63.0981 167.92L64.1791 167.92L71.9241 132.614C72.0681 131.965 72.5731 131.75 73.1491 131.75L82.8401 131.75C83.6331 131.75 83.8491 132.253 83.7051 132.974L72.1051 179.16C71.9601 179.736 71.4561 180.024 70.8801 180.024L56.3971 180.024Z" fill="#fcf3c0" fill-rule="nonzero" opacity="1" stroke="none"/>
<path d="M138.078 131.75C138.942 131.75 139.23 132.218 138.798 133.047L124.604 161.363L124.604 178.943C124.604 179.592 124.172 180.024 123.523 180.024L114.013 180.024C113.364 180.024 112.932 179.592 112.932 178.943L112.932 161.183L98.7373 133.047C98.3053 132.218 98.5933 131.75 99.4583 131.75L109.473 131.75C110.05 131.75 110.517 131.966 110.77 132.47L118.767 150.303L126.802 132.47C127.017 131.966 127.522 131.75 128.099 131.75L138.078 131.75Z" fill="#fcf3c0" fill-rule="nonzero" opacity="1" stroke="none"/>
<path d="M92.3604 101.193C79.6864 84.9175 75.9744 62.7885 80.5554 42.8155C80.5544 42.8155 85.1934 42.4355 85.1934 42.4355C94.2774 41.6515 103.623 44.2465 111.048 49.5735C113.554 51.3545 115.87 53.4125 117.94 55.7205L105.574 57.8695C108.188 50.1605 112.773 43.0735 118.957 37.7005C125.157 32.2255 132.823 28.5685 140.948 27.0125L146.569 25.9385L149.4 31.0005C156.81 44.2675 159.19 60.3195 155.661 75.1175L146.716 66.4455C161.113 63.4035 175.031 66.8165 187.075 74.9245C184.105 91.7735 173.251 106.821 156.71 112.138C151.985 113.681 147.064 114.334 142.289 114.066C146.898 112.802 151.191 110.908 155.031 108.496C166.098 101.728 173.451 89.4995 174.691 76.7335L177.731 82.8935C171.203 80.0655 164.006 78.8525 156.946 79.5685C152.442 79.8955 143.642 82.6635 139.184 83.7875C140.024 78.2775 142.086 69.0105 141.867 63.5145C141.882 54.8715 139.587 46.2915 135.418 38.7325L143.871 42.7205C135.725 44.1825 128.245 48.8675 123.333 55.5485C119.854 59.7875 116.464 69.8395 114.228 74.8825C111.574 71.5595 105.963 63.1635 102.631 60.6015C97.8754 56.5505 91.7784 54.1405 85.5144 53.8275L90.8904 49.4775C85.4444 66.2495 86.4314 84.6065 92.3604 101.193" fill="#fcf3c0" fill-rule="nonzero" opacity="1" stroke="none"/>
<path d="M58.965 65.5062L46.907 65.5062L46.907 106.506" fill="none" opacity="1" stroke="#fcf3c0" stroke-linecap="square" stroke-linejoin="miter" stroke-width="8"/>
<path d="M153.848 176.391L167.927 176.391L167.927 131.85" fill="none" opacity="1" stroke="#fcf3c0" stroke-linecap="square" stroke-linejoin="miter" stroke-width="8"/>
</g>
</g>
</svg>
