<?xml version="1.0" encoding="UTF-8" standalone="no"?>
<!DOCTYPE svg PUBLIC "-//W3C//DTD SVG 1.1//EN" "http://www.w3.org/Graphics/SVG/1.1/DTD/svg11.dtd">
<!-- Created with Vectornator (http://vectornator.io/) -->
<svg height="100%" stroke-miterlimit="10" style="fill-rule:nonzero;clip-rule:evenodd;stroke-linecap:round;stroke-linejoin:round;" version="1.1" viewBox="0 0 1440 216" width="100%" xml:space="preserve" xmlns="http://www.w3.org/2000/svg" xmlns:xlink="http://www.w3.org/1999/xlink">
<defs>
<filter color-interpolation-filters="sRGB" filterUnits="userSpaceOnUse" height="58" id="Filter" width="261.909" x="1149.02" y="76.032">
<feDropShadow dx="3.26783" dy="5.03202" flood-color="#6f7f37" flood-opacity="1" in="SourceGraphic" result="Shadow" stdDeviation="10"/>
</filter>
</defs>
<g id="Banner">
<path d="M185.406 0C182.424 0 180 2.42391 180 5.40625L180 210.594C180 213.576 182.424 216 185.406 216L1434.59 216C1437.58 216 1440 213.576 1440 210.594L1440 5.40625C1440 2.42392 1437.58 6.35783e-07 1434.59 0L185.406 0Z" fill="#fcf3c0" fill-rule="nonzero" opacity="1" stroke="none"/>
<path d="M272.04 30C261.677 20 251.313 10 240.95 0L1.08039 0C0.483877 0 0.000305176 0.483578 0.000305176 1.0801L0.000305176 214.92C0.000305176 215.516 0.483883 216 1.08041 216L1438.92 216C1439.52 216 1440 215.516 1440 214.92L1440 31.0801C1440 30.4836 1439.52 30 1438.92 30L272.04 30Z" fill="#5b6a2b" fill-rule="nonzero" opacity="1" stroke="none"/>
<g filter="url(#Filter)">
<g opacity="1">
<clipPath id="ClipPath">
<path d="M1165.75 91L1387.66 91L1387.66 91L1387.66 109L1387.66 109L1165.75 109L1165.75 109L1165.75 91L1165.75 91Z"/>
</clipPath>
<g clip-path="url(#ClipPath)">
<path d="M1212.8 105C1212.96 105 1213.07 104.892 1213.07 104.73L1213.07 103.182C1213.07 103.02 1212.96 102.912 1212.8 102.912L1209.89 102.912L1209.89 95.028L1212.8 95.028C1212.96 95.028 1213.07 94.92 1213.07 94.758L1213.07 93.21C1213.07 93.048 1212.96 92.94 1212.8 92.94L1204.63 92.94C1204.47 92.94 1204.36 93.048 1204.36 93.21L1204.36 94.758C1204.36 94.92 1204.47 95.028 1204.63 95.028L1207.54 95.028L1207.54 102.912L1204.63 102.912C1204.47 102.912 1204.36 103.02 1204.36 103.182L1204.36 104.73C1204.36 104.892 1204.47 105 1204.63 105L1212.8 105Z" fill="#fcf3c0" fill-rule="nonzero" opacity="1" stroke="none"/>
</g>
</g>
<g opacity="1">
<clipPath id="ClipPath_2">
<path d="M1165.75 91L1387.66 91L1387.66 91L1387.66 109L1387.66 109L1165.75 109L1165.75 109L1165.75 91L1165.75 91Z"/>
</clipPath>
<g clip-path="url(#ClipPath_2)">
<path d="M1223.24 105C1223.39 105 1223.51 104.928 1223.56 104.784L1226.75 93.246C1226.8 93.066 1226.74 92.94 1226.54 92.94L1224.7 92.94C1224.56 92.94 1224.43 92.994 1224.4 93.156L1221.95 102.561L1221.62 102.561L1219.18 93.156C1219.14 92.994 1219.01 92.94 1218.87 92.94L1217.04 92.94C1216.84 92.94 1216.77 93.066 1216.83 93.246L1220.01 104.784C1220.06 104.928 1220.18 105 1220.33 105L1223.24 105Z" fill="#fcf3c0" fill-rule="nonzero" opacity="1" stroke="none"/>
</g>
</g>
<g opacity="1">
<clipPath id="ClipPath_3">
<path d="M1165.75 91L1387.66 91L1387.66 91L1387.66 109L1387.66 109L1165.75 109L1165.75 109L1165.75 91L1165.75 91Z"/>
</clipPath>
<g clip-path="url(#ClipPath_3)">
<path d="M1237.68 92.94C1237.54 92.94 1237.42 92.994 1237.36 93.12L1234.86 98.097L1232.36 93.12C1232.29 92.994 1232.18 92.94 1232.04 92.94L1230.12 92.94C1229.91 92.94 1229.83 93.066 1229.94 93.264L1233.68 100.302L1233.68 104.73C1233.68 104.892 1233.78 105 1233.95 105L1235.76 105C1235.93 105 1236.03 104.892 1236.03 104.73L1236.03 100.338L1239.77 93.264C1239.88 93.066 1239.81 92.94 1239.59 92.94L1237.68 92.94Z" fill="#fcf3c0" fill-rule="nonzero" opacity="1" stroke="none"/>
</g>
</g>
<g opacity="1">
<clipPath id="ClipPath_4">
<path d="M1165.75 91L1387.66 91L1387.66 91L1387.66 109L1387.66 109L1165.75 109L1165.75 109L1165.75 91L1165.75 91Z"/>
</clipPath>
<g clip-path="url(#ClipPath_4)">
<path d="M1248.01 92.301C1245.16 92.301 1243.34 93.579 1243.34 97.008L1243.34 102.597C1243.34 106.026 1245.23 107.142 1248.62 107.142C1249.39 107.142 1250.43 107.088 1251.32 106.836L1251.32 105.252C1250.51 105.423 1249.52 105.477 1248.78 105.477C1246.37 105.477 1245.07 104.928 1245.07 102.435L1245.07 97.179C1245.07 94.605 1246.22 93.984 1248.01 93.984C1248.95 93.984 1249.7 94.146 1250.18 94.731C1248.41 94.668 1247.14 95.775 1247.14 97.584L1247.14 100.428C1247.14 102.309 1248.09 103.146 1249.83 103.146C1251.35 103.146 1252.51 102.309 1252.51 100.428L1252.51 96.864C1252.51 93.48 1250.64 92.301 1248.01 92.301ZM1250.78 100.302C1250.78 100.986 1250.52 101.526 1249.83 101.526C1249.05 101.526 1248.88 100.986 1248.88 100.302L1248.88 97.755C1248.88 96.27 1249.61 95.802 1250.68 95.928C1250.74 96.261 1250.78 96.657 1250.78 97.107L1250.78 100.302Z" fill="#fcf3c0" fill-rule="nonzero" opacity="1" stroke="none"/>
</g>
</g>
<g opacity="1">
<clipPath id="ClipPath_5">
<path d="M1165.75 91L1387.66 91L1387.66 91L1387.66 109L1387.66 109L1165.75 109L1165.75 109L1165.75 91L1165.75 91Z"/>
</clipPath>
<g clip-path="url(#ClipPath_5)">
<path d="M1265.05 105C1265.21 105 1265.32 104.892 1265.32 104.73L1265.32 103.929C1265.32 103.767 1265.21 103.659 1265.05 103.659L1261.72 103.659L1261.72 94.281L1265.05 94.281C1265.21 94.281 1265.32 94.173 1265.32 94.011L1265.32 93.21C1265.32 93.048 1265.21 92.94 1265.05 92.94L1256.95 92.94C1256.78 92.94 1256.68 93.048 1256.68 93.21L1256.68 94.011C1256.68 94.173 1256.78 94.281 1256.95 94.281L1260.27 94.281L1260.27 103.659L1256.95 103.659C1256.78 103.659 1256.68 103.767 1256.68 103.929L1256.68 104.73C1256.68 104.892 1256.78 105 1256.95 105L1265.05 105Z" fill="#fcf3c0" fill-rule="nonzero" opacity="1" stroke="none"/>
</g>
</g>
<g opacity="1">
<clipPath id="ClipPath_6">
<path d="M1165.75 91L1387.66 91L1387.66 91L1387.66 109L1387.66 109L1165.75 109L1165.75 109L1165.75 91L1165.75 91Z"/>
</clipPath>
<g clip-path="url(#ClipPath_6)">
<path d="M1274.97 105C1275.11 105 1275.24 104.928 1275.29 104.784L1278.96 93.246C1279.01 93.066 1278.94 92.94 1278.75 92.94L1277.84 92.94C1277.69 92.94 1277.58 92.994 1277.53 93.156L1274.28 103.497L1273.85 103.497L1270.6 93.156C1270.55 92.994 1270.44 92.94 1270.29 92.94L1269.39 92.94C1269.2 92.94 1269.12 93.066 1269.17 93.246L1272.84 104.784C1272.89 104.928 1273.02 105 1273.17 105L1274.97 105Z" fill="#fcf3c0" fill-rule="nonzero" opacity="1" stroke="none"/>
</g>
</g>
<g opacity="1">
<clipPath id="ClipPath_7">
<path d="M1165.75 91L1387.66 91L1387.66 91L1387.66 109L1387.66 109L1165.75 109L1165.75 109L1165.75 91L1165.75 91Z"/>
</clipPath>
<g clip-path="url(#ClipPath_7)">
<path d="M1290.75 92.94C1290.6 92.94 1290.49 92.994 1290.42 93.12L1287.14 98.934L1283.84 93.12C1283.78 92.994 1283.66 92.94 1283.53 92.94L1282.55 92.94C1282.33 92.94 1282.26 93.084 1282.37 93.264L1286.41 100.311L1286.41 104.73C1286.41 104.892 1286.51 105 1286.68 105L1287.59 105C1287.76 105 1287.86 104.892 1287.86 104.73L1287.86 100.311L1291.91 93.264C1292.01 93.084 1291.94 92.94 1291.73 92.94L1290.75 92.94Z" fill="#fcf3c0" fill-rule="nonzero" opacity="1" stroke="none"/>
</g>
</g>
<g opacity="1">
<clipPath id="ClipPath_8">
<path d="M1165.75 91L1387.66 91L1387.66 91L1387.66 109L1387.66 109L1165.75 109L1165.75 109L1165.75 91L1165.75 91Z"/>
</clipPath>
<g clip-path="url(#ClipPath_8)">
<path d="M1300.21 105.234C1301.06 105.234 1301.72 104.568 1301.72 103.722C1301.72 102.876 1301.06 102.21 1300.21 102.21C1299.35 102.21 1298.69 102.876 1298.69 103.722C1298.69 104.568 1299.35 105.234 1300.21 105.234Z" fill="#fcf3c0" fill-rule="nonzero" opacity="1" stroke="none"/>
</g>
</g>
<g opacity="1">
<clipPath id="ClipPath_9">
<path d="M1165.75 91L1387.66 91L1387.66 91L1387.66 109L1387.66 109L1165.75 109L1165.75 109L1165.75 91L1165.75 91Z"/>
</clipPath>
<g clip-path="url(#ClipPath_9)">
<path d="M1312.4 105C1316.68 105 1317.79 102.597 1317.79 98.97C1317.79 95.343 1316.68 92.94 1312.4 92.94L1309.31 92.94C1309.14 92.94 1309.04 93.048 1309.04 93.21L1309.04 104.73C1309.04 104.892 1309.14 105 1309.31 105L1312.4 105ZM1310.49 94.281L1312.36 94.281C1315.66 94.281 1316.31 96.018 1316.31 98.97C1316.31 101.922 1315.66 103.659 1312.36 103.659L1310.49 103.659L1310.49 94.281Z" fill="#fcf3c0" fill-rule="nonzero" opacity="1" stroke="none"/>
</g>
</g>
<g opacity="1">
<clipPath id="ClipPath_10">
<path d="M1165.75 91L1387.66 91L1387.66 91L1387.66 109L1387.66 109L1165.75 109L1165.75 109L1165.75 91L1165.75 91Z"/>
</clipPath>
<g clip-path="url(#ClipPath_10)">
<path d="M1330.4 105C1330.56 105 1330.67 104.892 1330.67 104.73L1330.67 103.929C1330.67 103.767 1330.56 103.659 1330.4 103.659L1327.07 103.659L1327.07 94.281L1330.4 94.281C1330.56 94.281 1330.67 94.173 1330.67 94.011L1330.67 93.21C1330.67 93.048 1330.56 92.94 1330.4 92.94L1322.3 92.94C1322.13 92.94 1322.03 93.048 1322.03 93.21L1322.03 94.011C1322.03 94.173 1322.13 94.281 1322.3 94.281L1325.62 94.281L1325.62 103.659L1322.3 103.659C1322.13 103.659 1322.03 103.767 1322.03 103.929L1322.03 104.73C1322.03 104.892 1322.13 105 1322.3 105L1330.4 105Z" fill="#fcf3c0" fill-rule="nonzero" opacity="1" stroke="none"/>
</g>
</g>
<g opacity="1">
<clipPath id="ClipPath_11">
<path d="M1165.75 91L1387.66 91L1387.66 91L1387.66 109L1387.66 109L1165.75 109L1165.75 109L1165.75 91L1165.75 91Z"/>
</clipPath>
<g clip-path="url(#ClipPath_11)">
<path d="M1336.59 105C1336.75 105 1336.86 104.892 1336.86 104.73L1336.86 100.68L1339.96 100.68L1342.16 104.802C1342.23 104.937 1342.33 105 1342.48 105L1343.44 105C1343.65 105 1343.74 104.874 1343.64 104.685L1341.38 100.464C1343.06 99.969 1343.8 98.628 1343.8 96.81C1343.8 94.479 1342.58 92.94 1339.72 92.94L1335.67 92.94C1335.51 92.94 1335.4 93.048 1335.4 93.21L1335.4 104.73C1335.4 104.892 1335.51 105 1335.67 105L1336.59 105ZM1336.86 94.281L1339.54 94.281C1341.31 94.281 1342.38 94.902 1342.38 96.81C1342.38 98.718 1341.31 99.339 1339.54 99.339L1336.86 99.339L1336.86 94.281Z" fill="#fcf3c0" fill-rule="nonzero" opacity="1" stroke="none"/>
</g>
</g>
<g opacity="1">
<clipPath id="ClipPath_12">
<path d="M1165.75 91L1387.66 91L1387.66 91L1387.66 109L1387.66 109L1165.75 109L1165.75 109L1165.75 91L1165.75 91Z"/>
</clipPath>
<g clip-path="url(#ClipPath_12)">
<path d="M1356.27 105C1356.44 105 1356.54 104.892 1356.54 104.73L1356.54 103.929C1356.54 103.767 1356.44 103.659 1356.27 103.659L1349.89 103.659L1349.89 99.501L1355.85 99.501C1356.01 99.501 1356.12 99.393 1356.12 99.231L1356.12 98.43C1356.12 98.268 1356.01 98.16 1355.85 98.16L1349.89 98.16L1349.89 94.281L1356.26 94.281C1356.42 94.281 1356.53 94.173 1356.53 94.011L1356.53 93.21C1356.53 93.048 1356.42 92.94 1356.26 92.94L1348.71 92.94C1348.54 92.94 1348.44 93.048 1348.44 93.21L1348.44 104.73C1348.44 104.892 1348.54 105 1348.71 105L1356.27 105Z" fill="#fcf3c0" fill-rule="nonzero" opacity="1" stroke="none"/>
</g>
</g>
<g opacity="1">
<clipPath id="ClipPath_13">
<path d="M1165.75 91L1387.66 91L1387.66 91L1387.66 109L1387.66 109L1165.75 109L1165.75 109L1165.75 91L1165.75 91Z"/>
</clipPath>
<g clip-path="url(#ClipPath_13)">
<path d="M1365.74 105.27C1367.88 105.27 1369.65 104.46 1369.89 101.832C1369.9 101.643 1369.83 101.535 1369.65 101.535L1368.8 101.535C1368.65 101.535 1368.54 101.607 1368.53 101.769C1368.25 103.452 1367.14 103.866 1365.76 103.866C1363.88 103.866 1362.57 103.038 1362.57 99.015C1362.57 94.992 1363.88 94.164 1365.76 94.164C1367.13 94.164 1368.25 94.578 1368.53 96.801C1368.54 96.963 1368.65 97.035 1368.8 97.035L1369.65 97.035C1369.83 97.035 1369.9 96.927 1369.89 96.729C1369.65 93.57 1367.88 92.76 1365.74 92.76C1362.82 92.76 1361.14 94.29 1361.14 99.015C1361.14 103.74 1362.82 105.27 1365.74 105.27Z" fill="#fcf3c0" fill-rule="nonzero" opacity="1" stroke="none"/>
</g>
</g>
<g opacity="1">
<clipPath id="ClipPath_14">
<path d="M1165.75 91L1387.66 91L1387.66 91L1387.66 109L1387.66 109L1165.75 109L1165.75 109L1165.75 91L1165.75 91Z"/>
</clipPath>
<g clip-path="url(#ClipPath_14)">
<path d="M1379.08 105C1379.25 105 1379.35 104.892 1379.35 104.73L1379.35 94.281L1382.99 94.281C1383.15 94.281 1383.26 94.173 1383.26 94.011L1383.26 93.21C1383.26 93.048 1383.15 92.94 1382.99 92.94L1374.26 92.94C1374.1 92.94 1373.99 93.048 1373.99 93.21L1373.99 94.011C1373.99 94.173 1374.1 94.281 1374.26 94.281L1377.9 94.281L1377.9 104.73C1377.9 104.892 1378 105 1378.17 105L1379.08 105Z" fill="#fcf3c0" fill-rule="nonzero" opacity="1" stroke="none"/>
</g>
</g>
</g>
<g opacity="1">
<g opacity="1">
<clipPath id="ClipPath_15">
<path d="M1136.55 128.116L1387.35 128.116L1387.35 128.116L1387.35 146.116L1387.35 146.116L1136.55 146.116L1136.55 146.116L1136.55 128.116L1136.55 128.116Z"/>
</clipPath>
<g clip-path="url(#ClipPath_15)">
<path d="M1173.24 142.116C1173.41 142.116 1173.51 142.008 1173.51 141.846L1173.51 141.045C1173.51 140.883 1173.41 140.775 1173.24 140.775L1169.92 140.775L1169.92 131.397L1173.24 131.397C1173.41 131.397 1173.51 131.289 1173.51 131.127L1173.51 130.326C1173.51 130.164 1173.41 130.056 1173.24 130.056L1165.14 130.056C1164.98 130.056 1164.87 130.164 1164.87 130.326L1164.87 131.127C1164.87 131.289 1164.98 131.397 1165.14 131.397L1168.47 131.397L1168.47 140.775L1165.14 140.775C1164.98 140.775 1164.87 140.883 1164.87 141.045L1164.87 141.846C1164.87 142.008 1164.98 142.116 1165.14 142.116L1173.24 142.116Z" fill="#fcf3c0" fill-rule="nonzero" opacity="1" stroke="none"/>
</g>
</g>
<g opacity="1">
<clipPath id="ClipPath_16">
<path d="M1136.55 128.116L1387.35 128.116L1387.35 128.116L1387.35 146.116L1387.35 146.116L1136.55 146.116L1136.55 146.116L1136.55 128.116L1136.55 128.116Z"/>
</clipPath>
<g clip-path="url(#ClipPath_16)">
<path d="M1183.16 142.116C1183.31 142.116 1183.44 142.044 1183.49 141.9L1187.16 130.362C1187.21 130.182 1187.14 130.056 1186.94 130.056L1186.04 130.056C1185.89 130.056 1185.78 130.11 1185.73 130.272L1182.48 140.613L1182.05 140.613L1178.8 130.272C1178.75 130.11 1178.64 130.056 1178.49 130.056L1177.58 130.056C1177.4 130.056 1177.32 130.182 1177.37 130.362L1181.04 141.9C1181.09 142.044 1181.22 142.116 1181.36 142.116L1183.16 142.116Z" fill="#fcf3c0" fill-rule="nonzero" opacity="1" stroke="none"/>
</g>
</g>
<g opacity="1">
<clipPath id="ClipPath_17">
<path d="M1136.55 128.116L1387.35 128.116L1387.35 128.116L1387.35 146.116L1387.35 146.116L1136.55 146.116L1136.55 146.116L1136.55 128.116L1136.55 128.116Z"/>
</clipPath>
<g clip-path="url(#ClipPath_17)">
<path d="M1198.95 130.056C1198.8 130.056 1198.69 130.11 1198.62 130.236L1195.33 136.05L1192.04 130.236C1191.98 130.11 1191.86 130.056 1191.73 130.056L1190.74 130.056C1190.53 130.056 1190.46 130.2 1190.56 130.38L1194.61 137.427L1194.61 141.846C1194.61 142.008 1194.71 142.116 1194.88 142.116L1195.79 142.116C1195.96 142.116 1196.06 142.008 1196.06 141.846L1196.06 137.427L1200.1 130.38C1200.21 130.2 1200.14 130.056 1199.92 130.056L1198.95 130.056Z" fill="#fcf3c0" fill-rule="nonzero" opacity="1" stroke="none"/>
</g>
</g>
<g opacity="1">
<clipPath id="ClipPath_18">
<path d="M1136.55 128.116L1387.35 128.116L1387.35 128.116L1387.35 146.116L1387.35 146.116L1136.55 146.116L1136.55 146.116L1136.55 128.116L1136.55 128.116Z"/>
</clipPath>
<g clip-path="url(#ClipPath_18)">
<path d="M1208.4 142.35C1209.26 142.35 1209.92 141.684 1209.92 140.838C1209.92 139.992 1209.26 139.326 1208.4 139.326C1207.55 139.326 1206.89 139.992 1206.89 140.838C1206.89 141.684 1207.55 142.35 1208.4 142.35Z" fill="#fcf3c0" fill-rule="nonzero" opacity="1" stroke="none"/>
</g>
</g>
<g opacity="1">
<clipPath id="ClipPath_19">
<path d="M1136.55 128.116L1387.35 128.116L1387.35 128.116L1387.35 146.116L1387.35 146.116L1136.55 146.116L1136.55 146.116L1136.55 128.116L1136.55 128.116Z"/>
</clipPath>
<g clip-path="url(#ClipPath_19)">
<path d="M1220.6 142.116C1224.88 142.116 1225.99 139.713 1225.99 136.086C1225.99 132.459 1224.88 130.056 1220.6 130.056L1217.51 130.056C1217.34 130.056 1217.24 130.164 1217.24 130.326L1217.24 141.846C1217.24 142.008 1217.34 142.116 1217.51 142.116L1220.6 142.116ZM1218.69 131.397L1220.56 131.397C1223.86 131.397 1224.51 133.134 1224.51 136.086C1224.51 139.038 1223.86 140.775 1220.56 140.775L1218.69 140.775L1218.69 131.397Z" fill="#fcf3c0" fill-rule="nonzero" opacity="1" stroke="none"/>
</g>
</g>
<g opacity="1">
<clipPath id="ClipPath_20">
<path d="M1136.55 128.116L1387.35 128.116L1387.35 128.116L1387.35 146.116L1387.35 146.116L1136.55 146.116L1136.55 146.116L1136.55 128.116L1136.55 128.116Z"/>
</clipPath>
<g clip-path="url(#ClipPath_20)">
<path d="M1238.59 142.116C1238.76 142.116 1238.86 142.008 1238.86 141.846L1238.86 141.045C1238.86 140.883 1238.76 140.775 1238.59 140.775L1235.27 140.775L1235.27 131.397L1238.59 131.397C1238.76 131.397 1238.86 131.289 1238.86 131.127L1238.86 130.326C1238.86 130.164 1238.76 130.056 1238.59 130.056L1230.49 130.056C1230.33 130.056 1230.22 130.164 1230.22 130.326L1230.22 131.127C1230.22 131.289 1230.33 131.397 1230.49 131.397L1233.82 131.397L1233.82 140.775L1230.49 140.775C1230.33 140.775 1230.22 140.883 1230.22 141.045L1230.22 141.846C1230.22 142.008 1230.33 142.116 1230.49 142.116L1238.59 142.116Z" fill="#fcf3c0" fill-rule="nonzero" opacity="1" stroke="none"/>
</g>
</g>
<g opacity="1">
<clipPath id="ClipPath_21">
<path d="M1136.55 128.116L1387.35 128.116L1387.35 128.116L1387.35 146.116L1387.35 146.116L1136.55 146.116L1136.55 146.116L1136.55 128.116L1136.55 128.116Z"/>
</clipPath>
<g clip-path="url(#ClipPath_21)">
<path d="M1244.79 142.116C1244.95 142.116 1245.06 142.008 1245.06 141.846L1245.06 137.796L1248.16 137.796L1250.36 141.918C1250.43 142.053 1250.53 142.116 1250.67 142.116L1251.64 142.116C1251.84 142.116 1251.93 141.99 1251.84 141.801L1249.58 137.58C1251.26 137.085 1252 135.744 1252 133.926C1252 131.595 1250.78 130.056 1247.92 130.056L1243.87 130.056C1243.71 130.056 1243.6 130.164 1243.6 130.326L1243.6 141.846C1243.6 142.008 1243.71 142.116 1243.87 142.116L1244.79 142.116ZM1245.06 131.397L1247.74 131.397C1249.5 131.397 1250.58 132.018 1250.58 133.926C1250.58 135.834 1249.5 136.455 1247.74 136.455L1245.06 136.455L1245.06 131.397Z" fill="#fcf3c0" fill-rule="nonzero" opacity="1" stroke="none"/>
</g>
</g>
<g opacity="1">
<clipPath id="ClipPath_22">
<path d="M1136.55 128.116L1387.35 128.116L1387.35 128.116L1387.35 146.116L1387.35 146.116L1136.55 146.116L1136.55 146.116L1136.55 128.116L1136.55 128.116Z"/>
</clipPath>
<g clip-path="url(#ClipPath_22)">
<path d="M1264.47 142.116C1264.64 142.116 1264.74 142.008 1264.74 141.846L1264.74 141.045C1264.74 140.883 1264.64 140.775 1264.47 140.775L1258.09 140.775L1258.09 136.617L1264.05 136.617C1264.21 136.617 1264.32 136.509 1264.32 136.347L1264.32 135.546C1264.32 135.384 1264.21 135.276 1264.05 135.276L1258.09 135.276L1258.09 131.397L1264.46 131.397C1264.62 131.397 1264.73 131.289 1264.73 131.127L1264.73 130.326C1264.73 130.164 1264.62 130.056 1264.46 130.056L1256.9 130.056C1256.74 130.056 1256.63 130.164 1256.63 130.326L1256.63 141.846C1256.63 142.008 1256.74 142.116 1256.9 142.116L1264.47 142.116Z" fill="#fcf3c0" fill-rule="nonzero" opacity="1" stroke="none"/>
</g>
</g>
<g opacity="1">
<clipPath id="ClipPath_23">
<path d="M1136.55 128.116L1387.35 128.116L1387.35 128.116L1387.35 146.116L1387.35 146.116L1136.55 146.116L1136.55 146.116L1136.55 128.116L1136.55 128.116Z"/>
</clipPath>
<g clip-path="url(#ClipPath_23)">
<path d="M1273.93 142.386C1276.08 142.386 1277.85 141.576 1278.09 138.948C1278.1 138.759 1278.03 138.651 1277.85 138.651L1276.99 138.651C1276.85 138.651 1276.74 138.723 1276.72 138.885C1276.45 140.568 1275.34 140.982 1273.96 140.982C1272.08 140.982 1270.77 140.154 1270.77 136.131C1270.77 132.108 1272.08 131.28 1273.96 131.28C1275.33 131.28 1276.45 131.694 1276.72 133.917C1276.74 134.079 1276.85 134.151 1276.99 134.151L1277.85 134.151C1278.03 134.151 1278.1 134.043 1278.09 133.845C1277.85 130.686 1276.08 129.876 1273.93 129.876C1271.02 129.876 1269.34 131.406 1269.34 136.131C1269.34 140.856 1271.02 142.386 1273.93 142.386Z" fill="#fcf3c0" fill-rule="nonzero" opacity="1" stroke="none"/>
</g>
</g>
<g opacity="1">
<clipPath id="ClipPath_24">
<path d="M1136.55 128.116L1387.35 128.116L1387.35 128.116L1387.35 146.116L1387.35 146.116L1136.55 146.116L1136.55 146.116L1136.55 128.116L1136.55 128.116Z"/>
</clipPath>
<g clip-path="url(#ClipPath_24)">
<path d="M1287.28 142.116C1287.45 142.116 1287.55 142.008 1287.55 141.846L1287.55 131.397L1291.19 131.397C1291.35 131.397 1291.46 131.289 1291.46 131.127L1291.46 130.326C1291.46 130.164 1291.35 130.056 1291.19 130.056L1282.46 130.056C1282.3 130.056 1282.19 130.164 1282.19 130.326L1282.19 131.127C1282.19 131.289 1282.3 131.397 1282.46 131.397L1286.1 131.397L1286.1 141.846C1286.1 142.008 1286.2 142.116 1286.37 142.116L1287.28 142.116Z" fill="#fcf3c0" fill-rule="nonzero" opacity="1" stroke="none"/>
</g>
</g>
<g opacity="1">
<clipPath id="ClipPath_25">
<path d="M1136.55 128.116L1387.35 128.116L1387.35 128.116L1387.35 146.116L1387.35 146.116L1136.55 146.116L1136.55 146.116L1136.55 128.116L1136.55 128.116Z"/>
</clipPath>
<g clip-path="url(#ClipPath_25)">
<path d="M1297.6 144.456C1297.74 144.456 1297.86 144.384 1297.92 144.24L1304.13 129.552C1304.21 129.372 1304.12 129.246 1303.92 129.246L1302.19 129.246C1302.05 129.246 1301.94 129.318 1301.87 129.462L1295.66 144.15C1295.57 144.348 1295.67 144.456 1295.87 144.456L1297.6 144.456Z" fill="#fcf3c0" fill-rule="nonzero" opacity="1" stroke="none"/>
</g>
</g>
<g opacity="1">
<clipPath id="ClipPath_26">
<path d="M1136.55 128.116L1387.35 128.116L1387.35 128.116L1387.35 146.116L1387.35 146.116L1136.55 146.116L1136.55 146.116L1136.55 128.116L1136.55 128.116Z"/>
</clipPath>
<g clip-path="url(#ClipPath_26)">
<path d="M1310.81 142.116C1310.98 142.116 1311.08 142.008 1311.08 141.846L1311.08 138.156L1313.3 138.156L1315.2 141.909C1315.27 142.053 1315.36 142.116 1315.51 142.116L1317.3 142.116C1317.51 142.116 1317.6 141.99 1317.5 141.801L1315.46 137.796C1316.95 137.202 1317.6 135.906 1317.6 134.106C1317.6 131.559 1316.32 130.056 1313.22 130.056L1309 130.056C1308.84 130.056 1308.73 130.164 1308.73 130.326L1308.73 141.846C1308.73 142.008 1308.84 142.116 1309 142.116L1310.81 142.116ZM1311.08 132.144L1313.09 132.144C1314.52 132.144 1315.34 132.603 1315.34 134.106C1315.34 135.6 1314.52 136.068 1313.09 136.068L1311.08 136.068L1311.08 132.144Z" fill="#fcf3c0" fill-rule="nonzero" opacity="1" stroke="none"/>
</g>
</g>
<g opacity="1">
<clipPath id="ClipPath_27">
<path d="M1136.55 128.116L1387.35 128.116L1387.35 128.116L1387.35 146.116L1387.35 146.116L1136.55 146.116L1136.55 146.116L1136.55 128.116L1136.55 128.116Z"/>
</clipPath>
<g clip-path="url(#ClipPath_27)">
<path d="M1329.9 142.116C1330.06 142.116 1330.17 142.008 1330.17 141.846L1330.17 140.298C1330.17 140.136 1330.06 140.028 1329.9 140.028L1324.26 140.028L1324.26 137.085L1329.47 137.085C1329.63 137.085 1329.74 136.977 1329.74 136.815L1329.74 135.267C1329.74 135.105 1329.63 134.997 1329.47 134.997L1324.26 134.997L1324.26 132.144L1329.88 132.144C1330.04 132.144 1330.15 132.036 1330.15 131.874L1330.15 130.326C1330.15 130.164 1330.04 130.056 1329.88 130.056L1322.18 130.056C1322.02 130.056 1321.91 130.164 1321.91 130.326L1321.91 141.846C1321.91 142.008 1322.02 142.116 1322.18 142.116L1329.9 142.116Z" fill="#fcf3c0" fill-rule="nonzero" opacity="1" stroke="none"/>
</g>
</g>
<g opacity="1">
<clipPath id="ClipPath_28">
<path d="M1136.55 128.116L1387.35 128.116L1387.35 128.116L1387.35 146.116L1387.35 146.116L1136.55 146.116L1136.55 146.116L1136.55 128.116L1136.55 128.116Z"/>
</clipPath>
<g clip-path="url(#ClipPath_28)">
<path d="M1339.03 142.386C1342.05 142.386 1343.66 141.108 1343.66 138.786C1343.66 136.131 1341.63 135.537 1339.48 135.069C1337.56 134.655 1337.1 134.088 1337.1 133.35C1337.1 132.45 1337.79 131.955 1339.09 131.955C1340.37 131.955 1341.09 132.441 1341.26 133.305C1341.28 133.449 1341.35 133.557 1341.52 133.557L1343.07 133.557C1343.24 133.557 1343.34 133.431 1343.33 133.251C1343.1 130.857 1341.6 129.876 1339.14 129.876C1336.21 129.876 1334.81 131.262 1334.81 133.269C1334.81 135.69 1336.81 136.545 1338.9 136.986C1340.81 137.391 1341.35 137.895 1341.35 138.75C1341.35 139.902 1340.36 140.307 1339.12 140.307C1337.75 140.307 1336.93 139.776 1336.75 138.777C1336.72 138.633 1336.65 138.516 1336.49 138.516L1334.8 138.516C1334.64 138.516 1334.53 138.651 1334.55 138.831C1334.74 141.378 1336.4 142.386 1339.03 142.386Z" fill="#fcf3c0" fill-rule="nonzero" opacity="1" stroke="none"/>
</g>
</g>
<g opacity="1">
<clipPath id="ClipPath_29">
<path d="M1136.55 128.116L1387.35 128.116L1387.35 128.116L1387.35 146.116L1387.35 146.116L1136.55 146.116L1136.55 146.116L1136.55 128.116L1136.55 128.116Z"/>
</clipPath>
<g clip-path="url(#ClipPath_29)">
<path d="M1352.17 142.386C1354.99 142.386 1356.56 140.955 1356.56 138.03L1356.56 130.326C1356.56 130.164 1356.45 130.056 1356.29 130.056L1354.48 130.056C1354.32 130.056 1354.21 130.164 1354.21 130.326L1354.21 137.841C1354.21 139.29 1353.54 140.136 1352.17 140.136C1350.81 140.136 1350.14 139.29 1350.14 137.841L1350.14 130.326C1350.14 130.164 1350.03 130.056 1349.87 130.056L1348.06 130.056C1347.9 130.056 1347.79 130.164 1347.79 130.326L1347.79 138.03C1347.79 140.955 1349.37 142.386 1352.17 142.386Z" fill="#fcf3c0" fill-rule="nonzero" opacity="1" stroke="none"/>
</g>
</g>
<g opacity="1">
<clipPath id="ClipPath_30">
<path d="M1136.55 128.116L1387.35 128.116L1387.35 128.116L1387.35 146.116L1387.35 146.116L1136.55 146.116L1136.55 146.116L1136.55 128.116L1136.55 128.116Z"/>
</clipPath>
<g clip-path="url(#ClipPath_30)">
<path d="M1362.48 142.116C1362.64 142.116 1362.75 142.008 1362.75 141.846L1362.75 134.835L1362.88 134.835L1364.38 141C1364.42 141.144 1364.56 141.216 1364.7 141.216L1365.79 141.216C1365.94 141.216 1366.07 141.144 1366.11 141L1367.61 134.835L1367.74 134.835L1367.74 141.846C1367.74 142.008 1367.85 142.116 1368.01 142.116L1369.4 142.116C1369.56 142.116 1369.67 142.008 1369.67 141.846L1369.67 130.326C1369.67 130.164 1369.56 130.056 1369.4 130.056L1367.53 130.056C1367.39 130.056 1367.23 130.11 1367.21 130.236L1365.31 138.57L1365.18 138.57L1363.28 130.236C1363.26 130.11 1363.1 130.056 1362.96 130.056L1361.09 130.056C1360.92 130.056 1360.82 130.164 1360.82 130.326L1360.82 141.846C1360.82 142.008 1360.92 142.116 1361.09 142.116L1362.48 142.116Z" fill="#fcf3c0" fill-rule="nonzero" opacity="1" stroke="none"/>
</g>
</g>
<g opacity="1">
<clipPath id="ClipPath_31">
<path d="M1136.55 128.116L1387.35 128.116L1387.35 128.116L1387.35 146.116L1387.35 146.116L1136.55 146.116L1136.55 146.116L1136.55 128.116L1136.55 128.116Z"/>
</clipPath>
<g clip-path="url(#ClipPath_31)">
<path d="M1382.18 142.116C1382.34 142.116 1382.45 142.008 1382.45 141.846L1382.45 140.298C1382.45 140.136 1382.34 140.028 1382.18 140.028L1376.54 140.028L1376.54 137.085L1381.75 137.085C1381.91 137.085 1382.02 136.977 1382.02 136.815L1382.02 135.267C1382.02 135.105 1381.91 134.997 1381.75 134.997L1376.54 134.997L1376.54 132.144L1382.16 132.144C1382.32 132.144 1382.43 132.036 1382.43 131.874L1382.43 130.326C1382.43 130.164 1382.32 130.056 1382.16 130.056L1374.46 130.056C1374.3 130.056 1374.19 130.164 1374.19 130.326L1374.19 141.846C1374.19 142.008 1374.3 142.116 1374.46 142.116L1382.18 142.116Z" fill="#fcf3c0" fill-rule="nonzero" opacity="1" stroke="none"/>
</g>
</g>
</g>
<g opacity="1">
<g opacity="1">
<clipPath id="ClipPath_32">
<path d="M1108.53 165.232L1387.35 165.232L1387.35 165.232L1387.35 183.232L1387.35 183.232L1108.53 183.232L1108.53 183.232L1108.53 165.232L1108.53 165.232Z"/>
</clipPath>
<g clip-path="url(#ClipPath_32)">
<path d="M1173.24 179.232C1173.41 179.232 1173.51 179.124 1173.51 178.962L1173.51 178.161C1173.51 177.999 1173.41 177.891 1173.24 177.891L1169.92 177.891L1169.92 168.513L1173.24 168.513C1173.41 168.513 1173.51 168.405 1173.51 168.243L1173.51 167.442C1173.51 167.28 1173.41 167.172 1173.24 167.172L1165.14 167.172C1164.98 167.172 1164.87 167.28 1164.87 167.442L1164.87 168.243C1164.87 168.405 1164.98 168.513 1165.14 168.513L1168.47 168.513L1168.47 177.891L1165.14 177.891C1164.98 177.891 1164.87 177.999 1164.87 178.161L1164.87 178.962C1164.87 179.124 1164.98 179.232 1165.14 179.232L1173.24 179.232Z" fill="#fcf3c0" fill-rule="nonzero" opacity="1" stroke="none"/>
</g>
</g>
<g opacity="1">
<clipPath id="ClipPath_33">
<path d="M1108.53 165.232L1387.35 165.232L1387.35 165.232L1387.35 183.232L1387.35 183.232L1108.53 183.232L1108.53 183.232L1108.53 165.232L1108.53 165.232Z"/>
</clipPath>
<g clip-path="url(#ClipPath_33)">
<path d="M1183.16 179.232C1183.31 179.232 1183.44 179.16 1183.49 179.016L1187.16 167.478C1187.21 167.298 1187.14 167.172 1186.94 167.172L1186.04 167.172C1185.89 167.172 1185.78 167.226 1185.73 167.388L1182.48 177.729L1182.05 177.729L1178.8 167.388C1178.75 167.226 1178.64 167.172 1178.49 167.172L1177.58 167.172C1177.4 167.172 1177.32 167.298 1177.37 167.478L1181.04 179.016C1181.09 179.16 1181.22 179.232 1181.36 179.232L1183.16 179.232Z" fill="#fcf3c0" fill-rule="nonzero" opacity="1" stroke="none"/>
</g>
</g>
<g opacity="1">
<clipPath id="ClipPath_34">
<path d="M1108.53 165.232L1387.35 165.232L1387.35 165.232L1387.35 183.232L1387.35 183.232L1108.53 183.232L1108.53 183.232L1108.53 165.232L1108.53 165.232Z"/>
</clipPath>
<g clip-path="url(#ClipPath_34)">
<path d="M1198.95 167.172C1198.8 167.172 1198.69 167.226 1198.62 167.352L1195.33 173.166L1192.04 167.352C1191.98 167.226 1191.86 167.172 1191.73 167.172L1190.74 167.172C1190.53 167.172 1190.46 167.316 1190.56 167.496L1194.61 174.543L1194.61 178.962C1194.61 179.124 1194.71 179.232 1194.88 179.232L1195.79 179.232C1195.96 179.232 1196.06 179.124 1196.06 178.962L1196.06 174.543L1200.1 167.496C1200.21 167.316 1200.14 167.172 1199.92 167.172L1198.95 167.172Z" fill="#fcf3c0" fill-rule="nonzero" opacity="1" stroke="none"/>
</g>
</g>
<g opacity="1">
<clipPath id="ClipPath_35">
<path d="M1108.53 165.232L1387.35 165.232L1387.35 165.232L1387.35 183.232L1387.35 183.232L1108.53 183.232L1108.53 183.232L1108.53 165.232L1108.53 165.232Z"/>
</clipPath>
<g clip-path="url(#ClipPath_35)">
<path d="M1208.4 179.466C1209.26 179.466 1209.92 178.8 1209.92 177.954C1209.92 177.108 1209.26 176.442 1208.4 176.442C1207.55 176.442 1206.89 177.108 1206.89 177.954C1206.89 178.8 1207.55 179.466 1208.4 179.466Z" fill="#fcf3c0" fill-rule="nonzero" opacity="1" stroke="none"/>
</g>
</g>
<g opacity="1">
<clipPath id="ClipPath_36">
<path d="M1108.53 165.232L1387.35 165.232L1387.35 165.232L1387.35 183.232L1387.35 183.232L1108.53 183.232L1108.53 183.232L1108.53 165.232L1108.53 165.232Z"/>
</clipPath>
<g clip-path="url(#ClipPath_36)">
<path d="M1220.6 179.232C1224.88 179.232 1225.99 176.829 1225.99 173.202C1225.99 169.575 1224.88 167.172 1220.6 167.172L1217.51 167.172C1217.34 167.172 1217.24 167.28 1217.24 167.442L1217.24 178.962C1217.24 179.124 1217.34 179.232 1217.51 179.232L1220.6 179.232ZM1218.69 168.513L1220.56 168.513C1223.86 168.513 1224.51 170.25 1224.51 173.202C1224.51 176.154 1223.86 177.891 1220.56 177.891L1218.69 177.891L1218.69 168.513Z" fill="#fcf3c0" fill-rule="nonzero" opacity="1" stroke="none"/>
</g>
</g>
<g opacity="1">
<clipPath id="ClipPath_37">
<path d="M1108.53 165.232L1387.35 165.232L1387.35 165.232L1387.35 183.232L1387.35 183.232L1108.53 183.232L1108.53 183.232L1108.53 165.232L1108.53 165.232Z"/>
</clipPath>
<g clip-path="url(#ClipPath_37)">
<path d="M1238.59 179.232C1238.76 179.232 1238.86 179.124 1238.86 178.962L1238.86 178.161C1238.86 177.999 1238.76 177.891 1238.59 177.891L1235.27 177.891L1235.27 168.513L1238.59 168.513C1238.76 168.513 1238.86 168.405 1238.86 168.243L1238.86 167.442C1238.86 167.28 1238.76 167.172 1238.59 167.172L1230.49 167.172C1230.33 167.172 1230.22 167.28 1230.22 167.442L1230.22 168.243C1230.22 168.405 1230.33 168.513 1230.49 168.513L1233.82 168.513L1233.82 177.891L1230.49 177.891C1230.33 177.891 1230.22 177.999 1230.22 178.161L1230.22 178.962C1230.22 179.124 1230.33 179.232 1230.49 179.232L1238.59 179.232Z" fill="#fcf3c0" fill-rule="nonzero" opacity="1" stroke="none"/>
</g>
</g>
<g opacity="1">
<clipPath id="ClipPath_38">
<path d="M1108.53 165.232L1387.35 165.232L1387.35 165.232L1387.35 183.232L1387.35 183.232L1108.53 183.232L1108.53 183.232L1108.53 165.232L1108.53 165.232Z"/>
</clipPath>
<g clip-path="url(#ClipPath_38)">
<path d="M1244.79 179.232C1244.95 179.232 1245.06 179.124 1245.06 178.962L1245.06 174.912L1248.16 174.912L1250.36 179.034C1250.43 179.169 1250.53 179.232 1250.67 179.232L1251.64 179.232C1251.84 179.232 1251.93 179.106 1251.84 178.917L1249.58 174.696C1251.26 174.201 1252 172.86 1252 171.042C1252 168.711 1250.78 167.172 1247.92 167.172L1243.87 167.172C1243.71 167.172 1243.6 167.28 1243.6 167.442L1243.6 178.962C1243.6 179.124 1243.71 179.232 1243.87 179.232L1244.79 179.232ZM1245.06 168.513L1247.74 168.513C1249.5 168.513 1250.58 169.134 1250.58 171.042C1250.58 172.95 1249.5 173.571 1247.74 173.571L1245.06 173.571L1245.06 168.513Z" fill="#fcf3c0" fill-rule="nonzero" opacity="1" stroke="none"/>
</g>
</g>
<g opacity="1">
<clipPath id="ClipPath_39">
<path d="M1108.53 165.232L1387.35 165.232L1387.35 165.232L1387.35 183.232L1387.35 183.232L1108.53 183.232L1108.53 183.232L1108.53 165.232L1108.53 165.232Z"/>
</clipPath>
<g clip-path="url(#ClipPath_39)">
<path d="M1264.47 179.232C1264.64 179.232 1264.74 179.124 1264.74 178.962L1264.74 178.161C1264.74 177.999 1264.64 177.891 1264.47 177.891L1258.09 177.891L1258.09 173.733L1264.05 173.733C1264.21 173.733 1264.32 173.625 1264.32 173.463L1264.32 172.662C1264.32 172.5 1264.21 172.392 1264.05 172.392L1258.09 172.392L1258.09 168.513L1264.46 168.513C1264.62 168.513 1264.73 168.405 1264.73 168.243L1264.73 167.442C1264.73 167.28 1264.62 167.172 1264.46 167.172L1256.9 167.172C1256.74 167.172 1256.63 167.28 1256.63 167.442L1256.63 178.962C1256.63 179.124 1256.74 179.232 1256.9 179.232L1264.47 179.232Z" fill="#fcf3c0" fill-rule="nonzero" opacity="1" stroke="none"/>
</g>
</g>
<g opacity="1">
<clipPath id="ClipPath_40">
<path d="M1108.53 165.232L1387.35 165.232L1387.35 165.232L1387.35 183.232L1387.35 183.232L1108.53 183.232L1108.53 183.232L1108.53 165.232L1108.53 165.232Z"/>
</clipPath>
<g clip-path="url(#ClipPath_40)">
<path d="M1273.93 179.502C1276.08 179.502 1277.85 178.692 1278.09 176.064C1278.1 175.875 1278.03 175.767 1277.85 175.767L1276.99 175.767C1276.85 175.767 1276.74 175.839 1276.72 176.001C1276.45 177.684 1275.34 178.098 1273.96 178.098C1272.08 178.098 1270.77 177.27 1270.77 173.247C1270.77 169.224 1272.08 168.396 1273.96 168.396C1275.33 168.396 1276.45 168.81 1276.72 171.033C1276.74 171.195 1276.85 171.267 1276.99 171.267L1277.85 171.267C1278.03 171.267 1278.1 171.159 1278.09 170.961C1277.85 167.802 1276.08 166.992 1273.93 166.992C1271.02 166.992 1269.34 168.522 1269.34 173.247C1269.34 177.972 1271.02 179.502 1273.93 179.502Z" fill="#fcf3c0" fill-rule="nonzero" opacity="1" stroke="none"/>
</g>
</g>
<g opacity="1">
<clipPath id="ClipPath_41">
<path d="M1108.53 165.232L1387.35 165.232L1387.35 165.232L1387.35 183.232L1387.35 183.232L1108.53 183.232L1108.53 183.232L1108.53 165.232L1108.53 165.232Z"/>
</clipPath>
<g clip-path="url(#ClipPath_41)">
<path d="M1287.28 179.232C1287.45 179.232 1287.55 179.124 1287.55 178.962L1287.55 168.513L1291.19 168.513C1291.35 168.513 1291.46 168.405 1291.46 168.243L1291.46 167.442C1291.46 167.28 1291.35 167.172 1291.19 167.172L1282.46 167.172C1282.3 167.172 1282.19 167.28 1282.19 167.442L1282.19 168.243C1282.19 168.405 1282.3 168.513 1282.46 168.513L1286.1 168.513L1286.1 178.962C1286.1 179.124 1286.2 179.232 1286.37 179.232L1287.28 179.232Z" fill="#fcf3c0" fill-rule="nonzero" opacity="1" stroke="none"/>
</g>
</g>
<g opacity="1">
<clipPath id="ClipPath_42">
<path d="M1108.53 165.232L1387.35 165.232L1387.35 165.232L1387.35 183.232L1387.35 183.232L1108.53 183.232L1108.53 183.232L1108.53 165.232L1108.53 165.232Z"/>
</clipPath>
<g clip-path="url(#ClipPath_42)">
<path d="M1297.6 181.572C1297.74 181.572 1297.86 181.5 1297.92 181.356L1304.13 166.668C1304.21 166.488 1304.12 166.362 1303.92 166.362L1302.19 166.362C1302.05 166.362 1301.94 166.434 1301.87 166.578L1295.66 181.266C1295.57 181.464 1295.67 181.572 1295.87 181.572L1297.6 181.572Z" fill="#fcf3c0" fill-rule="nonzero" opacity="1" stroke="none"/>
</g>
</g>
<g opacity="1">
<clipPath id="ClipPath_43">
<path d="M1108.53 165.232L1387.35 165.232L1387.35 165.232L1387.35 183.232L1387.35 183.232L1108.53 183.232L1108.53 183.232L1108.53 165.232L1108.53 165.232Z"/>
</clipPath>
<g clip-path="url(#ClipPath_43)">
<path d="M1313.12 179.502C1315.75 179.502 1317.36 178.404 1317.52 175.416C1317.53 175.236 1317.45 175.128 1317.27 175.128L1315.62 175.128C1315.46 175.128 1315.35 175.191 1315.33 175.362C1315.11 176.856 1314.36 177.252 1313.11 177.252C1311.55 177.252 1310.68 176.523 1310.68 173.247C1310.68 169.971 1311.55 169.242 1313.11 169.242C1314.28 169.242 1315.11 169.638 1315.33 171.636C1315.35 171.798 1315.46 171.87 1315.62 171.87L1317.27 171.87C1317.45 171.87 1317.53 171.762 1317.52 171.573C1317.36 168.09 1315.75 166.992 1313.12 166.992C1309.77 166.992 1308.4 168.801 1308.4 173.247C1308.4 177.684 1309.77 179.502 1313.12 179.502Z" fill="#fcf3c0" fill-rule="nonzero" opacity="1" stroke="none"/>
</g>
</g>
<g opacity="1">
<clipPath id="ClipPath_44">
<path d="M1108.53 165.232L1387.35 165.232L1387.35 165.232L1387.35 183.232L1387.35 183.232L1108.53 183.232L1108.53 183.232L1108.53 165.232L1108.53 165.232Z"/>
</clipPath>
<g clip-path="url(#ClipPath_44)">
<path d="M1323.88 179.232C1324.05 179.232 1324.15 179.124 1324.15 178.962L1324.15 175.272L1326.37 175.272L1328.27 179.025C1328.34 179.169 1328.43 179.232 1328.58 179.232L1330.37 179.232C1330.58 179.232 1330.67 179.106 1330.57 178.917L1328.53 174.912C1330.02 174.318 1330.67 173.022 1330.67 171.222C1330.67 168.675 1329.39 167.172 1326.29 167.172L1322.07 167.172C1321.91 167.172 1321.8 167.28 1321.8 167.442L1321.8 178.962C1321.8 179.124 1321.91 179.232 1322.07 179.232L1323.88 179.232ZM1324.15 169.26L1326.16 169.26C1327.59 169.26 1328.41 169.719 1328.41 171.222C1328.41 172.716 1327.59 173.184 1326.16 173.184L1324.15 173.184L1324.15 169.26Z" fill="#fcf3c0" fill-rule="nonzero" opacity="1" stroke="none"/>
</g>
</g>
<g opacity="1">
<clipPath id="ClipPath_45">
<path d="M1108.53 165.232L1387.35 165.232L1387.35 165.232L1387.35 183.232L1387.35 183.232L1108.53 183.232L1108.53 183.232L1108.53 165.232L1108.53 165.232Z"/>
</clipPath>
<g clip-path="url(#ClipPath_45)">
<path d="M1342.97 179.232C1343.13 179.232 1343.24 179.124 1343.24 178.962L1343.24 177.414C1343.24 177.252 1343.13 177.144 1342.97 177.144L1337.33 177.144L1337.33 174.201L1342.54 174.201C1342.7 174.201 1342.81 174.093 1342.81 173.931L1342.81 172.383C1342.81 172.221 1342.7 172.113 1342.54 172.113L1337.33 172.113L1337.33 169.26L1342.95 169.26C1343.11 169.26 1343.22 169.152 1343.22 168.99L1343.22 167.442C1343.22 167.28 1343.11 167.172 1342.95 167.172L1335.25 167.172C1335.09 167.172 1334.98 167.28 1334.98 167.442L1334.98 178.962C1334.98 179.124 1335.09 179.232 1335.25 179.232L1342.97 179.232Z" fill="#fcf3c0" fill-rule="nonzero" opacity="1" stroke="none"/>
</g>
</g>
<g opacity="1">
<clipPath id="ClipPath_46">
<path d="M1108.53 165.232L1387.35 165.232L1387.35 165.232L1387.35 183.232L1387.35 183.232L1108.53 183.232L1108.53 183.232L1108.53 165.232L1108.53 165.232Z"/>
</clipPath>
<g clip-path="url(#ClipPath_46)">
<path d="M1353.95 167.388C1353.9 167.244 1353.78 167.172 1353.63 167.172L1350.72 167.172C1350.57 167.172 1350.45 167.244 1350.4 167.388L1347.26 178.926C1347.21 179.106 1347.28 179.232 1347.48 179.232L1349.3 179.232C1349.45 179.232 1349.57 179.178 1349.61 179.016L1350.15 176.883L1354.2 176.883L1354.74 179.016C1354.78 179.178 1354.9 179.232 1355.05 179.232L1356.88 179.232C1357.08 179.232 1357.14 179.106 1357.1 178.926L1353.95 167.388ZM1352.01 169.602L1352.34 169.602L1353.69 174.876L1350.66 174.876L1352.01 169.602Z" fill="#fcf3c0" fill-rule="nonzero" opacity="1" stroke="none"/>
</g>
</g>
<g opacity="1">
<clipPath id="ClipPath_47">
<path d="M1108.53 165.232L1387.35 165.232L1387.35 165.232L1387.35 183.232L1387.35 183.232L1108.53 183.232L1108.53 183.232L1108.53 165.232L1108.53 165.232Z"/>
</clipPath>
<g clip-path="url(#ClipPath_47)">
<path d="M1366.15 179.232C1366.32 179.232 1366.42 179.124 1366.42 178.962L1366.42 169.26L1369.61 169.26C1369.77 169.26 1369.88 169.152 1369.88 168.99L1369.88 167.442C1369.88 167.28 1369.77 167.172 1369.61 167.172L1360.88 167.172C1360.72 167.172 1360.61 167.28 1360.61 167.442L1360.61 168.99C1360.61 169.152 1360.72 169.26 1360.88 169.26L1364.07 169.26L1364.07 178.962C1364.07 179.124 1364.17 179.232 1364.34 179.232L1366.15 179.232Z" fill="#fcf3c0" fill-rule="nonzero" opacity="1" stroke="none"/>
</g>
</g>
<g opacity="1">
<clipPath id="ClipPath_48">
<path d="M1108.53 165.232L1387.35 165.232L1387.35 165.232L1387.35 183.232L1387.35 183.232L1108.53 183.232L1108.53 183.232L1108.53 165.232L1108.53 165.232Z"/>
</clipPath>
<g clip-path="url(#ClipPath_48)">
<path d="M1382.18 179.232C1382.34 179.232 1382.45 179.124 1382.45 178.962L1382.45 177.414C1382.45 177.252 1382.34 177.144 1382.18 177.144L1376.54 177.144L1376.54 174.201L1381.75 174.201C1381.91 174.201 1382.02 174.093 1382.02 173.931L1382.02 172.383C1382.02 172.221 1381.91 172.113 1381.75 172.113L1376.54 172.113L1376.54 169.26L1382.16 169.26C1382.32 169.26 1382.43 169.152 1382.43 168.99L1382.43 167.442C1382.43 167.28 1382.32 167.172 1382.16 167.172L1374.46 167.172C1374.3 167.172 1374.19 167.28 1374.19 167.442L1374.19 178.962C1374.19 179.124 1374.3 179.232 1374.46 179.232L1382.18 179.232Z" fill="#fcf3c0" fill-rule="nonzero" opacity="1" stroke="none"/>
</g>
</g>
</g>
<g opacity="1">
<g opacity="1">
<clipPath id="ClipPath_49">
<path d="M1274.74 57.061L1385.07 57.061L1385.07 57.061L1385.07 71.061L1385.07 71.061L1274.74 71.061L1274.74 71.061L1274.74 57.061L1274.74 57.061Z"/>
</clipPath>
<g clip-path="url(#ClipPath_49)">
<path d="M1298.7 69.241C1300.66 69.241 1301.69 68.137 1301.69 65.071C1301.69 62.005 1300.66 60.901 1298.7 60.901C1296.74 60.901 1295.71 62.005 1295.71 65.071C1295.71 68.137 1296.74 69.241 1298.7 69.241ZM1298.7 68.053C1297.66 68.053 1296.91 67.531 1296.91 65.071C1296.91 62.611 1297.66 62.089 1298.7 62.089C1299.74 62.089 1300.49 62.611 1300.49 65.071C1300.49 67.531 1299.74 68.053 1298.7 68.053Z" fill="#fcf3c0" fill-rule="nonzero" opacity="1" stroke="none"/>
</g>
</g>
<g opacity="1">
<clipPath id="ClipPath_50">
<path d="M1274.74 57.061L1385.07 57.061L1385.07 57.061L1385.07 71.061L1385.07 71.061L1274.74 71.061L1274.74 71.061L1274.74 57.061L1274.74 57.061Z"/>
</clipPath>
<g clip-path="url(#ClipPath_50)">
<path d="M1303.49 61.021C1303.38 61.021 1303.31 61.093 1303.31 61.201L1303.31 68.881C1303.31 68.989 1303.38 69.061 1303.49 69.061L1304.36 69.061C1304.47 69.061 1304.54 68.989 1304.54 68.881L1304.54 66.289L1306.24 66.289C1308.22 66.289 1309.04 65.263 1309.04 63.655C1309.04 62.035 1308.22 61.021 1306.24 61.021L1303.49 61.021ZM1304.54 65.173L1304.54 62.137L1306.13 62.137C1307.21 62.137 1307.86 62.497 1307.86 63.655C1307.86 64.807 1307.21 65.173 1306.13 65.173L1304.54 65.173Z" fill="#fcf3c0" fill-rule="nonzero" opacity="1" stroke="none"/>
</g>
</g>
<g opacity="1">
<clipPath id="ClipPath_51">
<path d="M1274.74 57.061L1385.07 57.061L1385.07 57.061L1385.07 71.061L1385.07 71.061L1274.74 71.061L1274.74 71.061L1274.74 57.061L1274.74 57.061Z"/>
</clipPath>
<g clip-path="url(#ClipPath_51)">
<path d="M1316 69.061C1316.11 69.061 1316.18 68.989 1316.18 68.881L1316.18 68.125C1316.18 68.017 1316.11 67.945 1316 67.945L1311.97 67.945L1311.97 65.533L1315.73 65.533C1315.84 65.533 1315.91 65.461 1315.91 65.353L1315.91 64.597C1315.91 64.489 1315.84 64.417 1315.73 64.417L1311.97 64.417L1311.97 62.137L1315.99 62.137C1316.1 62.137 1316.17 62.065 1316.17 61.957L1316.17 61.201C1316.17 61.093 1316.1 61.021 1315.99 61.021L1310.92 61.021C1310.81 61.021 1310.74 61.093 1310.74 61.201L1310.74 68.881C1310.74 68.989 1310.81 69.061 1310.92 69.061L1316 69.061Z" fill="#fcf3c0" fill-rule="nonzero" opacity="1" stroke="none"/>
</g>
</g>
<g opacity="1">
<clipPath id="ClipPath_52">
<path d="M1274.74 57.061L1385.07 57.061L1385.07 57.061L1385.07 71.061L1385.07 71.061L1274.74 71.061L1274.74 71.061L1274.74 57.061L1274.74 57.061Z"/>
</clipPath>
<g clip-path="url(#ClipPath_52)">
<path d="M1322.66 61.021C1322.55 61.021 1322.48 61.093 1322.48 61.201L1322.48 67.261L1319.56 61.141C1319.52 61.057 1319.44 61.021 1319.35 61.021L1318.25 61.021C1318.15 61.021 1318.07 61.093 1318.07 61.201L1318.07 68.881C1318.07 68.989 1318.15 69.061 1318.25 69.061L1319.02 69.061C1319.13 69.061 1319.2 68.989 1319.2 68.881L1319.2 62.809L1322.13 68.941C1322.17 69.025 1322.25 69.061 1322.35 69.061L1323.43 69.061C1323.53 69.061 1323.61 68.989 1323.61 68.881L1323.61 61.201C1323.61 61.093 1323.53 61.021 1323.43 61.021L1322.66 61.021Z" fill="#fcf3c0" fill-rule="nonzero" opacity="1" stroke="none"/>
</g>
</g>
<g opacity="1">
<clipPath id="ClipPath_53">
<path d="M1274.74 57.061L1385.07 57.061L1385.07 57.061L1385.07 71.061L1385.07 71.061L1274.74 71.061L1274.74 71.061L1274.74 57.061L1274.74 57.061Z"/>
</clipPath>
<g clip-path="url(#ClipPath_53)">
<path d="M1336.04 69.061C1336.15 69.061 1336.22 68.989 1336.22 68.881L1336.22 62.137L1338.51 62.137C1338.62 62.137 1338.69 62.065 1338.69 61.957L1338.69 61.201C1338.69 61.093 1338.62 61.021 1338.51 61.021L1332.69 61.021C1332.58 61.021 1332.51 61.093 1332.51 61.201L1332.51 61.957C1332.51 62.065 1332.58 62.137 1332.69 62.137L1334.98 62.137L1334.98 68.881C1334.98 68.989 1335.05 69.061 1335.16 69.061L1336.04 69.061Z" fill="#fcf3c0" fill-rule="nonzero" opacity="1" stroke="none"/>
</g>
</g>
<g opacity="1">
<clipPath id="ClipPath_54">
<path d="M1274.74 57.061L1385.07 57.061L1385.07 57.061L1385.07 71.061L1385.07 71.061L1274.74 71.061L1274.74 71.061L1274.74 57.061L1274.74 57.061Z"/>
</clipPath>
<g clip-path="url(#ClipPath_54)">
<path d="M1342.98 69.241C1344.94 69.241 1345.97 68.137 1345.97 65.071C1345.97 62.005 1344.94 60.901 1342.98 60.901C1341.02 60.901 1339.99 62.005 1339.99 65.071C1339.99 68.137 1341.02 69.241 1342.98 69.241ZM1342.98 68.053C1341.94 68.053 1341.19 67.531 1341.19 65.071C1341.19 62.611 1341.94 62.089 1342.98 62.089C1344.02 62.089 1344.77 62.611 1344.77 65.071C1344.77 67.531 1344.02 68.053 1342.98 68.053Z" fill="#fcf3c0" fill-rule="nonzero" opacity="1" stroke="none"/>
</g>
</g>
<g opacity="1">
<clipPath id="ClipPath_55">
<path d="M1274.74 57.061L1385.07 57.061L1385.07 57.061L1385.07 71.061L1385.07 71.061L1274.74 71.061L1274.74 71.061L1274.74 57.061L1274.74 57.061Z"/>
</clipPath>
<g clip-path="url(#ClipPath_55)">
<path d="M1360.06 61.021C1359.96 61.021 1359.86 61.057 1359.85 61.165L1359.14 67.495L1358.17 61.885C1358.15 61.777 1358.06 61.741 1357.97 61.741L1357.51 61.741C1357.42 61.741 1357.33 61.777 1357.31 61.885L1356.34 67.495L1355.63 61.165C1355.62 61.057 1355.52 61.021 1355.42 61.021L1354.63 61.021C1354.49 61.021 1354.46 61.105 1354.48 61.225L1355.49 68.917C1355.5 69.013 1355.62 69.061 1355.71 69.061L1356.76 69.061C1356.85 69.061 1356.95 69.013 1356.97 68.917L1357.74 64.207L1358.51 68.917C1358.53 69.013 1358.63 69.061 1358.72 69.061L1359.77 69.061C1359.86 69.061 1359.98 69.013 1359.99 68.917L1361 61.225C1361.02 61.105 1360.99 61.021 1360.85 61.021L1360.06 61.021Z" fill="#fcf3c0" fill-rule="nonzero" opacity="1" stroke="none"/>
</g>
</g>
<g opacity="1">
<clipPath id="ClipPath_56">
<path d="M1274.74 57.061L1385.07 57.061L1385.07 57.061L1385.07 71.061L1385.07 71.061L1274.74 71.061L1274.74 71.061L1274.74 57.061L1274.74 57.061Z"/>
</clipPath>
<g clip-path="url(#ClipPath_56)">
<path d="M1365.12 69.241C1367.08 69.241 1368.11 68.137 1368.11 65.071C1368.11 62.005 1367.08 60.901 1365.12 60.901C1363.16 60.901 1362.13 62.005 1362.13 65.071C1362.13 68.137 1363.16 69.241 1365.12 69.241ZM1365.12 68.053C1364.08 68.053 1363.33 67.531 1363.33 65.071C1363.33 62.611 1364.08 62.089 1365.12 62.089C1366.16 62.089 1366.91 62.611 1366.91 65.071C1366.91 67.531 1366.16 68.053 1365.12 68.053Z" fill="#fcf3c0" fill-rule="nonzero" opacity="1" stroke="none"/>
</g>
</g>
<g opacity="1">
<clipPath id="ClipPath_57">
<path d="M1274.74 57.061L1385.07 57.061L1385.07 57.061L1385.07 71.061L1385.07 71.061L1274.74 71.061L1274.74 71.061L1274.74 57.061L1274.74 57.061Z"/>
</clipPath>
<g clip-path="url(#ClipPath_57)">
<path d="M1370.81 69.061C1370.92 69.061 1370.99 68.989 1370.99 68.881L1370.99 66.289L1372.81 66.289L1374.18 68.929C1374.23 69.019 1374.29 69.061 1374.39 69.061L1375.27 69.061C1375.41 69.061 1375.48 68.977 1375.41 68.851L1373.96 66.103C1375.03 65.737 1375.49 64.861 1375.49 63.655C1375.49 62.035 1374.67 61.021 1372.69 61.021L1369.94 61.021C1369.83 61.021 1369.76 61.093 1369.76 61.201L1369.76 68.881C1369.76 68.989 1369.83 69.061 1369.94 69.061L1370.81 69.061ZM1370.99 62.137L1372.58 62.137C1373.66 62.137 1374.31 62.497 1374.31 63.655C1374.31 64.807 1373.66 65.173 1372.58 65.173L1370.99 65.173L1370.99 62.137Z" fill="#fcf3c0" fill-rule="nonzero" opacity="1" stroke="none"/>
</g>
</g>
<g opacity="1">
<clipPath id="ClipPath_58">
<path d="M1274.74 57.061L1385.07 57.061L1385.07 57.061L1385.07 71.061L1385.07 71.061L1274.74 71.061L1274.74 71.061L1274.74 57.061L1274.74 57.061Z"/>
</clipPath>
<g clip-path="url(#ClipPath_58)">
<path d="M1379.96 64.705L1382.83 61.237C1382.93 61.123 1382.89 61.021 1382.74 61.021L1381.66 61.021C1381.57 61.021 1381.5 61.045 1381.44 61.117L1378.18 65.155L1378.18 61.201C1378.18 61.093 1378.11 61.021 1378 61.021L1377.13 61.021C1377.02 61.021 1376.95 61.093 1376.95 61.201L1376.95 68.881C1376.95 68.989 1377.02 69.061 1377.13 69.061L1378 69.061C1378.11 69.061 1378.18 68.989 1378.18 68.881L1378.18 66.847L1379.22 65.599L1381.7 68.953C1381.76 69.037 1381.82 69.061 1381.92 69.061L1382.9 69.061C1383.05 69.061 1383.1 68.965 1383.01 68.845L1379.96 64.705Z" fill="#fcf3c0" fill-rule="nonzero" opacity="1" stroke="none"/>
</g>
</g>
</g>
<path d="M1287.39 65.061L1137.39 65.061L1137.39 64.061L1287.39 64.061L1287.39 65.061Z" fill="#fcf3c0" fill-rule="nonzero" opacity="1" stroke="none"/>
<path d="M1071.77 64.061L271.766 64.061L271.766 63.061L1071.77 63.061L1071.77 64.061Z" fill="#fcf3c0" fill-rule="nonzero" opacity="1" stroke="none"/>
<g opacity="1">
<g opacity="1">
<clipPath id="ClipPath_59">
<path d="M265.931 102.981L843.457 102.981L843.457 102.981L843.457 195.981L843.457 195.981L265.931 195.981L265.931 195.981L265.931 102.981L265.931 102.981Z"/>
</clipPath>
<g clip-path="url(#ClipPath_59)">
<path d="M273.36 179.981L284.371 179.981C285.064 179.981 285.603 179.442 285.603 178.749L285.603 127.313C285.603 126.62 285.064 126.081 284.371 126.081L273.36 126.081C272.667 126.081 272.205 126.62 272.205 127.313L272.205 178.749C272.205 179.442 272.667 179.981 273.36 179.981Z" fill="#fcf3c0" fill-rule="nonzero" opacity="1" stroke="none"/>
</g>
</g>
<g opacity="1">
<clipPath id="ClipPath_60">
<path d="M265.931 102.981L843.457 102.981L843.457 102.981L843.457 195.981L843.457 195.981L265.931 195.981L265.931 195.981L265.931 102.981L265.931 102.981Z"/>
</clipPath>
<g clip-path="url(#ClipPath_60)">
<path d="M314.629 179.981L326.256 179.981C326.872 179.981 327.565 179.673 327.796 179.057L345.506 127.39C345.814 126.62 345.352 126.081 344.505 126.081L333.032 126.081C332.416 126.081 331.877 126.312 331.646 127.005L320.481 162.887L309.239 127.005C309.008 126.312 308.546 126.081 307.93 126.081L296.457 126.081C295.61 126.081 295.148 126.62 295.456 127.39L313.166 179.057C313.397 179.673 314.013 179.981 314.629 179.981Z" fill="#fcf3c0" fill-rule="nonzero" opacity="1" stroke="none"/>
</g>
</g>
<g opacity="1">
<clipPath id="ClipPath_61">
<path d="M265.931 102.981L843.457 102.981L843.457 102.981L843.457 195.981L843.457 195.981L265.931 195.981L265.931 195.981L265.931 102.981L265.931 102.981Z"/>
</clipPath>
<g clip-path="url(#ClipPath_61)">
<path d="M369.758 179.981L380.769 179.981C381.462 179.981 382.001 179.442 382.001 178.749L382.001 155.495L397.709 127.467C398.171 126.543 397.786 126.081 396.862 126.081L385.466 126.081C384.85 126.081 384.388 126.312 384.08 126.851L375.302 143.252L366.524 126.851C366.216 126.312 365.677 126.081 365.061 126.081L353.665 126.081C352.741 126.081 352.433 126.543 352.895 127.467L368.603 155.341L368.603 178.749C368.603 179.442 369.065 179.981 369.758 179.981Z" fill="#fcf3c0" fill-rule="nonzero" opacity="1" stroke="none"/>
</g>
</g>
<g opacity="1">
<clipPath id="ClipPath_62">
<path d="M265.931 102.981L843.457 102.981L843.457 102.981L843.457 195.981L843.457 195.981L265.931 195.981L265.931 195.981L265.931 102.981L265.931 102.981Z"/>
</clipPath>
<g clip-path="url(#ClipPath_62)">
<path d="M407.1 180.982C411.181 180.982 414.492 177.671 414.492 173.59C414.492 169.432 411.181 166.044 407.1 166.044C402.942 166.044 399.631 169.432 399.631 173.59C399.631 177.671 402.942 180.982 407.1 180.982Z" fill="#fcf3c0" fill-rule="nonzero" opacity="1" stroke="none"/>
</g>
</g>
<g opacity="1">
<clipPath id="ClipPath_63">
<path d="M265.931 102.981L843.457 102.981L843.457 102.981L843.457 195.981L843.457 195.981L265.931 195.981L265.931 195.981L265.931 102.981L265.931 102.981Z"/>
</clipPath>
<g clip-path="url(#ClipPath_63)">
<path d="M426.27 179.981L443.98 179.981C461.69 179.981 471.469 168.046 471.469 153.031C471.469 138.016 461.69 126.081 443.98 126.081L426.27 126.081C425.577 126.081 425.115 126.62 425.115 127.313L425.115 178.749C425.115 179.442 425.577 179.981 426.27 179.981ZM438.513 168.123L438.513 137.939L443.749 137.939C452.912 137.939 457.917 143.098 457.917 153.031C457.917 162.964 452.912 168.123 443.749 168.123L438.513 168.123Z" fill="#fcf3c0" fill-rule="nonzero" opacity="1" stroke="none"/>
</g>
</g>
<g opacity="1">
<clipPath id="ClipPath_64">
<path d="M265.931 102.981L843.457 102.981L843.457 102.981L843.457 195.981L843.457 195.981L265.931 195.981L265.931 195.981L265.931 102.981L265.931 102.981Z"/>
</clipPath>
<g clip-path="url(#ClipPath_64)">
<path d="M483.247 179.981L494.258 179.981C494.951 179.981 495.49 179.442 495.49 178.749L495.49 127.313C495.49 126.62 494.951 126.081 494.258 126.081L483.247 126.081C482.554 126.081 482.092 126.62 482.092 127.313L482.092 178.749C482.092 179.442 482.554 179.981 483.247 179.981Z" fill="#fcf3c0" fill-rule="nonzero" opacity="1" stroke="none"/>
</g>
</g>
<g opacity="1">
<clipPath id="ClipPath_65">
<path d="M265.931 102.981L843.457 102.981L843.457 102.981L843.457 195.981L843.457 195.981L265.931 195.981L265.931 195.981L265.931 102.981L265.931 102.981Z"/>
</clipPath>
<g clip-path="url(#ClipPath_65)">
<path d="M535.142 179.981L546.846 179.981C547.77 179.981 548.155 179.442 547.616 178.595L535.989 160.038C542.534 157.266 545.614 151.414 545.614 143.945C545.614 133.319 539.377 126.081 526.133 126.081L509.193 126.081C508.5 126.081 508.038 126.62 508.038 127.313L508.038 178.749C508.038 179.442 508.5 179.981 509.193 179.981L520.204 179.981C520.897 179.981 521.436 179.442 521.436 178.749L521.436 161.809L523.13 161.809L533.756 179.211C534.064 179.75 534.526 179.981 535.142 179.981ZM521.436 149.951L521.436 137.939L525.825 137.939C529.367 137.939 532.832 138.863 532.832 143.945C532.832 149.027 529.367 149.951 525.825 149.951L521.436 149.951Z" fill="#fcf3c0" fill-rule="nonzero" opacity="1" stroke="none"/>
</g>
</g>
<g opacity="1">
<clipPath id="ClipPath_66">
<path d="M265.931 102.981L843.457 102.981L843.457 102.981L843.457 195.981L843.457 195.981L265.931 195.981L265.931 195.981L265.931 102.981L265.931 102.981Z"/>
</clipPath>
<g clip-path="url(#ClipPath_66)">
<path d="M559.24 179.981L587.345 179.981C588.038 179.981 588.577 179.442 588.577 178.749L588.577 169.355C588.577 168.662 588.038 168.123 587.345 168.123L571.483 168.123L571.483 158.806L586.421 158.806C587.114 158.806 587.653 158.344 587.653 157.651L587.653 148.18C587.653 147.487 587.114 146.948 586.421 146.948L571.483 146.948L571.483 137.939L587.422 137.939C588.115 137.939 588.577 137.4 588.577 136.707L588.577 127.313C588.577 126.62 588.115 126.081 587.422 126.081L559.24 126.081C558.547 126.081 558.085 126.62 558.085 127.313L558.085 178.749C558.085 179.442 558.547 179.981 559.24 179.981Z" fill="#fcf3c0" fill-rule="nonzero" opacity="1" stroke="none"/>
</g>
</g>
<g opacity="1">
<clipPath id="ClipPath_67">
<path d="M265.931 102.981L843.457 102.981L843.457 102.981L843.457 195.981L843.457 195.981L265.931 195.981L265.931 195.981L265.931 102.981L265.931 102.981Z"/>
</clipPath>
<g clip-path="url(#ClipPath_67)">
<path d="M624.841 180.982C632.618 180.982 639.24 177.825 644.014 172.743C644.553 172.204 644.245 171.665 643.86 171.28L637.084 163.965C636.622 163.426 635.929 163.426 635.467 163.811C632.618 166.275 629.076 167.815 624.841 167.815C616.679 167.815 610.442 161.732 610.442 153.262C610.442 144.792 616.679 138.632 624.841 138.632C629.076 138.632 632.618 140.172 635.467 142.636C635.929 143.021 636.622 143.021 637.007 142.482L643.86 135.167C644.245 134.705 644.553 134.166 644.014 133.627C639.24 128.622 632.618 125.465 624.841 125.465C609.672 125.465 596.89 137.323 596.89 153.262C596.89 169.201 609.672 180.982 624.841 180.982Z" fill="#fcf3c0" fill-rule="nonzero" opacity="1" stroke="none"/>
</g>
</g>
<g opacity="1">
<clipPath id="ClipPath_68">
<path d="M265.931 102.981L843.457 102.981L843.457 102.981L843.457 195.981L843.457 195.981L265.931 195.981L265.931 195.981L265.931 102.981L265.931 102.981Z"/>
</clipPath>
<g clip-path="url(#ClipPath_68)">
<path d="M664.955 179.981L675.966 179.981C676.659 179.981 677.198 179.442 677.198 178.749L677.198 137.939L687.208 137.939C687.901 137.939 688.44 137.4 688.44 136.707L688.44 127.313C688.44 126.62 687.901 126.081 687.208 126.081L653.713 126.081C653.02 126.081 652.558 126.62 652.558 127.313L652.558 136.707C652.558 137.4 653.02 137.939 653.713 137.939L663.8 137.939L663.8 178.749C663.8 179.442 664.262 179.981 664.955 179.981Z" fill="#fcf3c0" fill-rule="nonzero" opacity="1" stroke="none"/>
</g>
</g>
</g>
<g opacity="1">
<g opacity="1">
<clipPath id="ClipPath_69">
<path d="M268.757 75.7029L870.395 75.7029L870.395 75.7029L870.395 108.703L870.395 108.703L268.757 108.703L268.757 108.703L268.757 75.7029L268.757 75.7029Z"/>
</clipPath>
<g clip-path="url(#ClipPath_69)">
<path d="M285.167 102.703C285.419 102.703 285.587 102.535 285.587 102.283L285.587 101.037C285.587 100.785 285.419 100.617 285.167 100.617L280.001 100.617L280.001 86.0289L285.167 86.0289C285.419 86.0289 285.587 85.8609 285.587 85.6089L285.587 84.3629C285.587 84.1109 285.419 83.9429 285.167 83.9429L272.567 83.9429C272.315 83.9429 272.147 84.1109 272.147 84.3629L272.147 85.6089C272.147 85.8609 272.315 86.0289 272.567 86.0289L277.733 86.0289L277.733 100.617L272.567 100.617C272.315 100.617 272.147 100.785 272.147 101.037L272.147 102.283C272.147 102.535 272.315 102.703 272.567 102.703L285.167 102.703Z" fill="#fcf3c0" fill-rule="nonzero" opacity="1" stroke="none"/>
</g>
</g>
<g opacity="1">
<clipPath id="ClipPath_70">
<path d="M268.757 75.7029L870.395 75.7029L870.395 75.7029L870.395 108.703L870.395 108.703L268.757 108.703L268.757 108.703L268.757 75.7029L268.757 75.7029Z"/>
</clipPath>
<g clip-path="url(#ClipPath_70)">
<path d="M302.763 83.9429C302.511 83.9429 302.343 84.1109 302.343 84.3629L302.343 99.6369L294.657 84.2229C294.573 84.0269 294.377 83.9429 294.153 83.9429L292.123 83.9429C291.871 83.9429 291.703 84.1109 291.703 84.3629L291.703 102.283C291.703 102.535 291.871 102.703 292.123 102.703L293.411 102.703C293.663 102.703 293.831 102.535 293.831 102.283L293.831 86.9529L301.531 102.423C301.629 102.619 301.811 102.703 302.035 102.703L304.051 102.703C304.303 102.703 304.471 102.535 304.471 102.283L304.471 84.3629C304.471 84.1109 304.303 83.9429 304.051 83.9429L302.763 83.9429Z" fill="#fcf3c0" fill-rule="nonzero" opacity="1" stroke="none"/>
</g>
</g>
<g opacity="1">
<clipPath id="ClipPath_71">
<path d="M268.757 75.7029L870.395 75.7029L870.395 75.7029L870.395 108.703L870.395 108.703L268.757 108.703L268.757 108.703L268.757 75.7029L268.757 75.7029Z"/>
</clipPath>
<g clip-path="url(#ClipPath_71)">
<path d="M318.021 102.703C318.273 102.703 318.441 102.535 318.441 102.283L318.441 86.0289L324.097 86.0289C324.349 86.0289 324.517 85.8609 324.517 85.6089L324.517 84.3629C324.517 84.1109 324.349 83.9429 324.097 83.9429L310.517 83.9429C310.265 83.9429 310.097 84.1109 310.097 84.3629L310.097 85.6089C310.097 85.8609 310.265 86.0289 310.517 86.0289L316.173 86.0289L316.173 102.283C316.173 102.535 316.341 102.703 316.593 102.703L318.021 102.703Z" fill="#fcf3c0" fill-rule="nonzero" opacity="1" stroke="none"/>
</g>
</g>
<g opacity="1">
<clipPath id="ClipPath_72">
<path d="M268.757 75.7029L870.395 75.7029L870.395 75.7029L870.395 108.703L870.395 108.703L268.757 108.703L268.757 108.703L268.757 75.7029L268.757 75.7029Z"/>
</clipPath>
<g clip-path="url(#ClipPath_72)">
<path d="M342.421 102.703C342.673 102.703 342.841 102.535 342.841 102.283L342.841 101.037C342.841 100.785 342.673 100.617 342.421 100.617L332.495 100.617L332.495 94.1489L341.763 94.1489C342.015 94.1489 342.183 93.9809 342.183 93.7289L342.183 92.4829C342.183 92.2309 342.015 92.0629 341.763 92.0629L332.495 92.0629L332.495 86.0289L342.393 86.0289C342.645 86.0289 342.813 85.8609 342.813 85.6089L342.813 84.3629C342.813 84.1109 342.645 83.9429 342.393 83.9429L330.647 83.9429C330.395 83.9429 330.227 84.1109 330.227 84.3629L330.227 102.283C330.227 102.535 330.395 102.703 330.647 102.703L342.421 102.703Z" fill="#fcf3c0" fill-rule="nonzero" opacity="1" stroke="none"/>
</g>
</g>
<g opacity="1">
<clipPath id="ClipPath_73">
<path d="M268.757 75.7029L870.395 75.7029L870.395 75.7029L870.395 108.703L870.395 108.703L268.757 108.703L268.757 108.703L268.757 75.7029L268.757 75.7029Z"/>
</clipPath>
<g clip-path="url(#ClipPath_73)">
<path d="M351.351 102.703C351.603 102.703 351.771 102.535 351.771 102.283L351.771 95.9829L356.601 95.9829L360.017 102.395C360.129 102.605 360.283 102.703 360.507 102.703L362.005 102.703C362.327 102.703 362.467 102.507 362.313 102.213L358.799 95.6469C361.417 94.8769 362.565 92.7909 362.565 89.9629C362.565 86.3369 360.675 83.9429 356.223 83.9429L349.923 83.9429C349.671 83.9429 349.503 84.1109 349.503 84.3629L349.503 102.283C349.503 102.535 349.671 102.703 349.923 102.703L351.351 102.703ZM351.771 86.0289L355.943 86.0289C358.687 86.0289 360.353 86.9949 360.353 89.9629C360.353 92.9309 358.687 93.8969 355.943 93.8969L351.771 93.8969L351.771 86.0289Z" fill="#fcf3c0" fill-rule="nonzero" opacity="1" stroke="none"/>
</g>
</g>
<g opacity="1">
<clipPath id="ClipPath_74">
<path d="M268.757 75.7029L870.395 75.7029L870.395 75.7029L870.395 108.703L870.395 108.703L268.757 108.703L268.757 108.703L268.757 75.7029L268.757 75.7029Z"/>
</clipPath>
<g clip-path="url(#ClipPath_74)">
<path d="M376.871 84.2789C376.801 84.0549 376.591 83.9429 376.367 83.9429L373.567 83.9429C373.343 83.9429 373.133 84.0549 373.063 84.2789L367.421 102.227C367.351 102.507 367.463 102.703 367.757 102.703L369.171 102.703C369.395 102.703 369.563 102.619 369.647 102.367L370.893 98.3629L379.041 98.3629L380.287 102.367C380.371 102.619 380.539 102.703 380.763 102.703L382.177 102.703C382.485 102.703 382.583 102.507 382.513 102.227L376.871 84.2789ZM374.631 86.2669L375.303 86.2669L378.425 96.3329L371.509 96.3329L374.631 86.2669Z" fill="#fcf3c0" fill-rule="nonzero" opacity="1" stroke="none"/>
</g>
</g>
<g opacity="1">
<clipPath id="ClipPath_75">
<path d="M268.757 75.7029L870.395 75.7029L870.395 75.7029L870.395 108.703L870.395 108.703L268.757 108.703L268.757 108.703L268.757 75.7029L268.757 75.7029Z"/>
</clipPath>
<g clip-path="url(#ClipPath_75)">
<path d="M394.467 103.123C397.799 103.123 400.557 101.863 400.935 97.7749C400.949 97.4809 400.837 97.3129 400.557 97.3129L399.227 97.3129C399.003 97.3129 398.835 97.4249 398.807 97.6769C398.373 100.295 396.651 100.939 394.509 100.939C391.583 100.939 389.539 99.6509 389.539 93.3929C389.539 87.1349 391.583 85.8469 394.509 85.8469C396.637 85.8469 398.373 86.4909 398.807 89.9489C398.835 90.2009 399.003 90.3129 399.227 90.3129L400.557 90.3129C400.837 90.3129 400.949 90.1449 400.935 89.8369C400.557 84.9229 397.799 83.6629 394.467 83.6629C389.931 83.6629 387.313 86.0429 387.313 93.3929C387.313 100.743 389.931 103.123 394.467 103.123Z" fill="#fcf3c0" fill-rule="nonzero" opacity="1" stroke="none"/>
</g>
</g>
<g opacity="1">
<clipPath id="ClipPath_76">
<path d="M268.757 75.7029L870.395 75.7029L870.395 75.7029L870.395 108.703L870.395 108.703L268.757 108.703L268.757 108.703L268.757 75.7029L268.757 75.7029Z"/>
</clipPath>
<g clip-path="url(#ClipPath_76)">
<path d="M414.121 102.703C414.373 102.703 414.541 102.535 414.541 102.283L414.541 86.0289L420.197 86.0289C420.449 86.0289 420.617 85.8609 420.617 85.6089L420.617 84.3629C420.617 84.1109 420.449 83.9429 420.197 83.9429L406.617 83.9429C406.365 83.9429 406.197 84.1109 406.197 84.3629L406.197 85.6089C406.197 85.8609 406.365 86.0289 406.617 86.0289L412.273 86.0289L412.273 102.283C412.273 102.535 412.441 102.703 412.693 102.703L414.121 102.703Z" fill="#fcf3c0" fill-rule="nonzero" opacity="1" stroke="none"/>
</g>
</g>
<g opacity="1">
<clipPath id="ClipPath_77">
<path d="M268.757 75.7029L870.395 75.7029L870.395 75.7029L870.395 108.703L870.395 108.703L268.757 108.703L268.757 108.703L268.757 75.7029L268.757 75.7029Z"/>
</clipPath>
<g clip-path="url(#ClipPath_77)">
<path d="M438.927 102.703C439.179 102.703 439.347 102.535 439.347 102.283L439.347 101.037C439.347 100.785 439.179 100.617 438.927 100.617L433.761 100.617L433.761 86.0289L438.927 86.0289C439.179 86.0289 439.347 85.8609 439.347 85.6089L439.347 84.3629C439.347 84.1109 439.179 83.9429 438.927 83.9429L426.327 83.9429C426.075 83.9429 425.907 84.1109 425.907 84.3629L425.907 85.6089C425.907 85.8609 426.075 86.0289 426.327 86.0289L431.493 86.0289L431.493 100.617L426.327 100.617C426.075 100.617 425.907 100.785 425.907 101.037L425.907 102.283C425.907 102.535 426.075 102.703 426.327 102.703L438.927 102.703Z" fill="#fcf3c0" fill-rule="nonzero" opacity="1" stroke="none"/>
</g>
</g>
<g opacity="1">
<clipPath id="ClipPath_78">
<path d="M268.757 75.7029L870.395 75.7029L870.395 75.7029L870.395 108.703L870.395 108.703L268.757 108.703L268.757 108.703L268.757 75.7029L268.757 75.7029Z"/>
</clipPath>
<g clip-path="url(#ClipPath_78)">
<path d="M453.247 102.703C453.471 102.703 453.681 102.591 453.751 102.367L459.463 84.4189C459.533 84.1389 459.435 83.9429 459.127 83.9429L457.713 83.9429C457.489 83.9429 457.321 84.0269 457.237 84.2789L452.183 100.365L451.511 100.365L446.457 84.2789C446.373 84.0269 446.205 83.9429 445.981 83.9429L444.567 83.9429C444.273 83.9429 444.161 84.1389 444.231 84.4189L449.943 102.367C450.013 102.591 450.223 102.703 450.447 102.703L453.247 102.703Z" fill="#fcf3c0" fill-rule="nonzero" opacity="1" stroke="none"/>
</g>
</g>
<g opacity="1">
<clipPath id="ClipPath_79">
<path d="M268.757 75.7029L870.395 75.7029L870.395 75.7029L870.395 108.703L870.395 108.703L268.757 108.703L268.757 108.703L268.757 75.7029L268.757 75.7029Z"/>
</clipPath>
<g clip-path="url(#ClipPath_79)">
<path d="M476.961 102.703C477.213 102.703 477.381 102.535 477.381 102.283L477.381 101.037C477.381 100.785 477.213 100.617 476.961 100.617L467.035 100.617L467.035 94.1489L476.303 94.1489C476.555 94.1489 476.723 93.9809 476.723 93.7289L476.723 92.4829C476.723 92.2309 476.555 92.0629 476.303 92.0629L467.035 92.0629L467.035 86.0289L476.933 86.0289C477.185 86.0289 477.353 85.8609 477.353 85.6089L477.353 84.3629C477.353 84.1109 477.185 83.9429 476.933 83.9429L465.187 83.9429C464.935 83.9429 464.767 84.1109 464.767 84.3629L464.767 102.283C464.767 102.535 464.935 102.703 465.187 102.703L476.961 102.703Z" fill="#fcf3c0" fill-rule="nonzero" opacity="1" stroke="none"/>
</g>
</g>
<g opacity="1">
<clipPath id="ClipPath_80">
<path d="M268.757 75.7029L870.395 75.7029L870.395 75.7029L870.395 108.703L870.395 108.703L268.757 108.703L268.757 108.703L268.757 75.7029L268.757 75.7029Z"/>
</clipPath>
<g clip-path="url(#ClipPath_80)">
<path d="M503.613 83.9429C503.361 83.9429 503.193 84.1109 503.193 84.3629L503.193 102.283C503.193 102.535 503.361 102.703 503.613 102.703L505.041 102.703C505.293 102.703 505.461 102.535 505.461 102.283L505.461 95.9829L509.913 95.9829C514.365 95.9829 516.255 93.6029 516.255 89.9629C516.255 86.3369 514.365 83.9429 509.913 83.9429L503.613 83.9429ZM505.461 93.8969L505.461 86.0289L509.633 86.0289C512.377 86.0289 514.043 86.9949 514.043 89.9629C514.043 92.9309 512.377 93.8969 509.633 93.8969L505.461 93.8969Z" fill="#fcf3c0" fill-rule="nonzero" opacity="1" stroke="none"/>
</g>
</g>
<g opacity="1">
<clipPath id="ClipPath_81">
<path d="M268.757 75.7029L870.395 75.7029L870.395 75.7029L870.395 108.703L870.395 108.703L268.757 108.703L268.757 108.703L268.757 75.7029L268.757 75.7029Z"/>
</clipPath>
<g clip-path="url(#ClipPath_81)">
<path d="M528.727 103.123C532.997 103.123 535.601 100.743 535.601 93.3929C535.601 86.0429 532.997 83.6629 528.727 83.6629C524.457 83.6629 521.853 86.0429 521.853 93.3929C521.853 100.743 524.457 103.123 528.727 103.123ZM528.727 100.925C526.095 100.925 524.079 99.6229 524.079 93.3929C524.079 87.1629 526.095 85.8609 528.727 85.8609C531.359 85.8609 533.375 87.1629 533.375 93.3929C533.375 99.6229 531.359 100.925 528.727 100.925Z" fill="#fcf3c0" fill-rule="nonzero" opacity="1" stroke="none"/>
</g>
</g>
<g opacity="1">
<clipPath id="ClipPath_82">
<path d="M268.757 75.7029L870.395 75.7029L870.395 75.7029L870.395 108.703L870.395 108.703L268.757 108.703L268.757 108.703L268.757 75.7029L268.757 75.7029Z"/>
</clipPath>
<g clip-path="url(#ClipPath_82)">
<path d="M543.551 102.703C543.803 102.703 543.971 102.535 543.971 102.283L543.971 95.9829L548.801 95.9829L552.217 102.395C552.329 102.605 552.483 102.703 552.707 102.703L554.205 102.703C554.527 102.703 554.667 102.507 554.513 102.213L550.999 95.6469C553.617 94.8769 554.765 92.7909 554.765 89.9629C554.765 86.3369 552.875 83.9429 548.423 83.9429L542.123 83.9429C541.871 83.9429 541.703 84.1109 541.703 84.3629L541.703 102.283C541.703 102.535 541.871 102.703 542.123 102.703L543.551 102.703ZM543.971 86.0289L548.143 86.0289C550.887 86.0289 552.553 86.9949 552.553 89.9629C552.553 92.9309 550.887 93.8969 548.143 93.8969L543.971 93.8969L543.971 86.0289Z" fill="#fcf3c0" fill-rule="nonzero" opacity="1" stroke="none"/>
</g>
</g>
<g opacity="1">
<clipPath id="ClipPath_83">
<path d="M268.757 75.7029L870.395 75.7029L870.395 75.7029L870.395 108.703L870.395 108.703L268.757 108.703L268.757 108.703L268.757 75.7029L268.757 75.7029Z"/>
</clipPath>
<g clip-path="url(#ClipPath_83)">
<path d="M567.881 102.703C568.133 102.703 568.301 102.535 568.301 102.283L568.301 86.0289L573.957 86.0289C574.209 86.0289 574.377 85.8609 574.377 85.6089L574.377 84.3629C574.377 84.1109 574.209 83.9429 573.957 83.9429L560.377 83.9429C560.125 83.9429 559.957 84.1109 559.957 84.3629L559.957 85.6089C559.957 85.8609 560.125 86.0289 560.377 86.0289L566.033 86.0289L566.033 102.283C566.033 102.535 566.201 102.703 566.453 102.703L567.881 102.703Z" fill="#fcf3c0" fill-rule="nonzero" opacity="1" stroke="none"/>
</g>
</g>
<g opacity="1">
<clipPath id="ClipPath_84">
<path d="M268.757 75.7029L870.395 75.7029L870.395 75.7029L870.395 108.703L870.395 108.703L268.757 108.703L268.757 108.703L268.757 75.7029L268.757 75.7029Z"/>
</clipPath>
<g clip-path="url(#ClipPath_84)">
<path d="M581.795 102.703C582.047 102.703 582.215 102.535 582.215 102.283L582.215 95.3389L591.763 95.3389C592.015 95.3389 592.183 95.1709 592.183 94.9189L592.183 93.6589C592.183 93.4069 592.015 93.2389 591.763 93.2389L582.215 93.2389L582.215 86.0289L592.407 86.0289C592.659 86.0289 592.827 85.8609 592.827 85.6089L592.827 84.3629C592.827 84.1109 592.659 83.9429 592.407 83.9429L580.367 83.9429C580.115 83.9429 579.947 84.1109 579.947 84.3629L579.947 102.283C579.947 102.535 580.115 102.703 580.367 102.703L581.795 102.703Z" fill="#fcf3c0" fill-rule="nonzero" opacity="1" stroke="none"/>
</g>
</g>
<g opacity="1">
<clipPath id="ClipPath_85">
<path d="M268.757 75.7029L870.395 75.7029L870.395 75.7029L870.395 108.703L870.395 108.703L268.757 108.703L268.757 108.703L268.757 75.7029L268.757 75.7029Z"/>
</clipPath>
<g clip-path="url(#ClipPath_85)">
<path d="M605.607 103.123C609.877 103.123 612.481 100.743 612.481 93.3929C612.481 86.0429 609.877 83.6629 605.607 83.6629C601.337 83.6629 598.733 86.0429 598.733 93.3929C598.733 100.743 601.337 103.123 605.607 103.123ZM605.607 100.925C602.975 100.925 600.959 99.6229 600.959 93.3929C600.959 87.1629 602.975 85.8609 605.607 85.8609C608.239 85.8609 610.255 87.1629 610.255 93.3929C610.255 99.6229 608.239 100.925 605.607 100.925Z" fill="#fcf3c0" fill-rule="nonzero" opacity="1" stroke="none"/>
</g>
</g>
<g opacity="1">
<clipPath id="ClipPath_86">
<path d="M268.757 75.7029L870.395 75.7029L870.395 75.7029L870.395 108.703L870.395 108.703L268.757 108.703L268.757 108.703L268.757 75.7029L268.757 75.7029Z"/>
</clipPath>
<g clip-path="url(#ClipPath_86)">
<path d="M630.931 102.703C631.183 102.703 631.351 102.535 631.351 102.283L631.351 101.037C631.351 100.785 631.183 100.617 630.931 100.617L621.005 100.617L621.005 84.3629C621.005 84.1109 620.837 83.9429 620.585 83.9429L619.157 83.9429C618.891 83.9429 618.737 84.1109 618.737 84.3629L618.737 102.283C618.737 102.535 618.891 102.703 619.157 102.703L630.931 102.703Z" fill="#fcf3c0" fill-rule="nonzero" opacity="1" stroke="none"/>
</g>
</g>
<g opacity="1">
<clipPath id="ClipPath_87">
<path d="M268.757 75.7029L870.395 75.7029L870.395 75.7029L870.395 108.703L870.395 108.703L268.757 108.703L268.757 108.703L268.757 75.7029L268.757 75.7029Z"/>
</clipPath>
<g clip-path="url(#ClipPath_87)">
<path d="M650.347 102.703C650.599 102.703 650.767 102.535 650.767 102.283L650.767 101.037C650.767 100.785 650.599 100.617 650.347 100.617L645.181 100.617L645.181 86.0289L650.347 86.0289C650.599 86.0289 650.767 85.8609 650.767 85.6089L650.767 84.3629C650.767 84.1109 650.599 83.9429 650.347 83.9429L637.747 83.9429C637.495 83.9429 637.327 84.1109 637.327 84.3629L637.327 85.6089C637.327 85.8609 637.495 86.0289 637.747 86.0289L642.913 86.0289L642.913 100.617L637.747 100.617C637.495 100.617 637.327 100.785 637.327 101.037L637.327 102.283C637.327 102.535 637.495 102.703 637.747 102.703L650.347 102.703Z" fill="#fcf3c0" fill-rule="nonzero" opacity="1" stroke="none"/>
</g>
</g>
<g opacity="1">
<clipPath id="ClipPath_88">
<path d="M268.757 75.7029L870.395 75.7029L870.395 75.7029L870.395 108.703L870.395 108.703L268.757 108.703L268.757 108.703L268.757 75.7029L268.757 75.7029Z"/>
</clipPath>
<g clip-path="url(#ClipPath_88)">
<path d="M663.267 103.123C667.537 103.123 670.141 100.743 670.141 93.3929C670.141 86.0429 667.537 83.6629 663.267 83.6629C658.997 83.6629 656.393 86.0429 656.393 93.3929C656.393 100.743 658.997 103.123 663.267 103.123ZM663.267 100.925C660.635 100.925 658.619 99.6229 658.619 93.3929C658.619 87.1629 660.635 85.8609 663.267 85.8609C665.899 85.8609 667.915 87.1629 667.915 93.3929C667.915 99.6229 665.899 100.925 663.267 100.925Z" fill="#fcf3c0" fill-rule="nonzero" opacity="1" stroke="none"/>
</g>
</g>
<g opacity="1">
<clipPath id="ClipPath_89">
<path d="M268.757 75.7029L870.395 75.7029L870.395 75.7029L870.395 108.703L870.395 108.703L268.757 108.703L268.757 108.703L268.757 75.7029L268.757 75.7029Z"/>
</clipPath>
<g clip-path="url(#ClipPath_89)">
<path d="M701.735 97.3269C703.737 97.3269 705.389 95.7029 705.389 93.6729C705.389 91.6289 703.737 90.0189 701.735 90.0189C699.705 90.0189 698.053 91.6289 698.053 93.6729C698.053 95.7029 699.705 97.3269 701.735 97.3269Z" fill="#fcf3c0" fill-rule="nonzero" opacity="1" stroke="none"/>
</g>
</g>
<g opacity="1">
<clipPath id="ClipPath_90">
<path d="M268.757 75.7029L870.395 75.7029L870.395 75.7029L870.395 108.703L870.395 108.703L268.757 108.703L268.757 108.703L268.757 75.7029L268.757 75.7029Z"/>
</clipPath>
<g clip-path="url(#ClipPath_90)">
<path d="M745.817 102.703C746.069 102.703 746.237 102.535 746.237 102.283L746.237 101.163C746.237 100.911 746.069 100.743 745.817 100.743L736.045 100.743C736.045 93.9389 746.251 95.8709 746.251 88.8989C746.251 85.8749 744.305 83.6629 740.063 83.6629C736.101 83.6629 733.749 85.6089 733.749 89.0949C733.749 89.3609 733.917 89.5569 734.169 89.5569L735.415 89.5569C735.667 89.5569 735.849 89.4309 735.863 89.1509C735.961 86.9109 737.333 85.6369 740.049 85.6369C743.031 85.6369 744.207 87.1629 744.207 88.9689C744.207 94.3449 733.833 92.5949 733.833 100.855L733.833 102.283C733.833 102.535 734.001 102.703 734.253 102.703L745.817 102.703Z" fill="#fcf3c0" fill-rule="nonzero" opacity="1" stroke="none"/>
</g>
</g>
<g opacity="1">
<clipPath id="ClipPath_91">
<path d="M268.757 75.7029L870.395 75.7029L870.395 75.7029L870.395 108.703L870.395 108.703L268.757 108.703L268.757 108.703L268.757 75.7029L268.757 75.7029Z"/>
</clipPath>
<g clip-path="url(#ClipPath_91)">
<path d="M759.367 103.123C764.085 103.123 766.171 100.925 766.171 93.3929C766.171 85.8609 764.085 83.6629 759.367 83.6629C754.649 83.6629 752.563 85.8609 752.563 93.3929C752.563 100.925 754.649 103.123 759.367 103.123ZM759.367 100.981C756.245 100.981 754.733 99.8469 754.733 93.3929C754.733 86.9389 756.245 85.8049 759.367 85.8049C762.489 85.8049 764.001 86.9389 764.001 93.3929C764.001 99.8469 762.489 100.981 759.367 100.981ZM758.863 95.8989L761.551 90.8869L759.899 90.8869L757.211 95.8989L758.863 95.8989Z" fill="#fcf3c0" fill-rule="nonzero" opacity="1" stroke="none"/>
</g>
</g>
<g opacity="1">
<clipPath id="ClipPath_92">
<path d="M268.757 75.7029L870.395 75.7029L870.395 75.7029L870.395 108.703L870.395 108.703L268.757 108.703L268.757 108.703L268.757 75.7029L268.757 75.7029Z"/>
</clipPath>
<g clip-path="url(#ClipPath_92)">
<path d="M784.257 102.703C784.509 102.703 784.677 102.535 784.677 102.283L784.677 101.163C784.677 100.911 784.509 100.743 784.257 100.743L774.485 100.743C774.485 93.9389 784.691 95.8709 784.691 88.8989C784.691 85.8749 782.745 83.6629 778.503 83.6629C774.541 83.6629 772.189 85.6089 772.189 89.0949C772.189 89.3609 772.357 89.5569 772.609 89.5569L773.855 89.5569C774.107 89.5569 774.289 89.4309 774.303 89.1509C774.401 86.9109 775.773 85.6369 778.489 85.6369C781.471 85.6369 782.647 87.1629 782.647 88.9689C782.647 94.3449 772.273 92.5949 772.273 100.855L772.273 102.283C772.273 102.535 772.441 102.703 772.693 102.703L784.257 102.703Z" fill="#fcf3c0" fill-rule="nonzero" opacity="1" stroke="none"/>
</g>
</g>
<g opacity="1"/>
</g>
<g opacity="1">
<path d="M56.3971 180.024C55.8211 180.024 55.3161 179.736 55.1721 179.16L43.6081 132.974C43.4281 132.253 43.6801 131.75 44.4731 131.75L54.1271 131.75C54.7041 131.75 55.2091 131.965 55.3531 132.614L63.0981 167.92L64.1791 167.92L71.9241 132.614C72.0681 131.965 72.5731 131.75 73.1491 131.75L82.8401 131.75C83.6331 131.75 83.8491 132.253 83.7051 132.974L72.1051 179.16C71.9601 179.736 71.4561 180.024 70.8801 180.024L56.3971 180.024Z" fill="#fcf3c0" fill-rule="nonzero" opacity="1" stroke="none"/>
<path d="M138.078 131.75C138.942 131.75 139.23 132.218 138.798 133.047L124.604 161.363L124.604 178.943C124.604 179.592 124.172 180.024 123.523 180.024L114.013 180.024C113.364 180.024 112.932 179.592 112.932 178.943L112.932 161.183L98.7373 133.047C98.3053 132.218 98.5933 131.75 99.4583 131.75L109.473 131.75C110.05 131.75 110.517 131.966 110.77 132.47L118.767 150.303L126.802 132.47C127.017 131.966 127.522 131.75 128.099 131.75L138.078 131.75Z" fill="#fcf3c0" fill-rule="nonzero" opacity="1" stroke="none"/>
<path d="M92.3604 101.193C79.6864 84.9175 75.9744 62.7885 80.5554 42.8155C80.5544 42.8155 85.1934 42.4355 85.1934 42.4355C94.2774 41.6515 103.623 44.2465 111.048 49.5735C113.554 51.3545 115.87 53.4125 117.94 55.7205L105.574 57.8695C108.188 50.1605 112.773 43.0735 118.957 37.7005C125.157 32.2255 132.823 28.5685 140.948 27.0125L146.569 25.9385L149.4 31.0005C156.81 44.2675 159.19 60.3195 155.661 75.1175L146.716 66.4455C161.113 63.4035 175.031 66.8165 187.075 74.9245C184.105 91.7735 173.251 106.821 156.71 112.138C151.985 113.681 147.064 114.334 142.289 114.066C146.898 112.802 151.191 110.908 155.031 108.496C166.098 101.728 173.451 89.4995 174.691 76.7335L177.731 82.8935C171.203 80.0655 164.006 78.8525 156.946 79.5685C152.442 79.8955 143.642 82.6635 139.184 83.7875C140.024 78.2775 142.086 69.0105 141.867 63.5145C141.882 54.8715 139.587 46.2915 135.418 38.7325L143.871 42.7205C135.725 44.1825 128.245 48.8675 123.333 55.5485C119.854 59.7875 116.464 69.8395 114.228 74.8825C111.574 71.5595 105.963 63.1635 102.631 60.6015C97.8754 56.5505 91.7784 54.1405 85.5144 53.8275L90.8904 49.4775C85.4444 66.2495 86.4314 84.6065 92.3604 101.193" fill="#fcf3c0" fill-rule="nonzero" opacity="1" stroke="none"/>
<path d="M58.965 65.5062L46.907 65.5062L46.907 106.506" fill="none" opacity="1" stroke="#fcf3c0" stroke-linecap="square" stroke-linejoin="miter" stroke-width="8"/>
<path d="M153.848 176.391L167.927 176.391L167.927 131.85" fill="none" opacity="1" stroke="#fcf3c0" stroke-linecap="square" stroke-linejoin="miter" stroke-width="8"/>
</g>
<path d="M797.669 102.738C801.792 102.738 804.463 100.669 804.463 97.3543C804.463 94.6284 802.628 93.1354 800.491 92.6012L800.491 92.3409C802.285 91.7382 803.614 90.2451 803.614 88.2179C803.614 85.5605 801.34 83.6976 797.642 83.6976C793.834 83.6976 791.491 85.6016 791.491 88.7384C791.491 89.0123 791.656 89.1904 791.902 89.1904L793.135 89.1904C793.382 89.1904 793.56 89.0671 793.56 88.7932C793.56 86.9987 795.025 85.6016 797.655 85.6016C799.059 85.6016 800.166 86.0011 800.845 86.6704C801.333 87.1503 801.6 87.7688 801.6 88.4781C801.6 90.0945 800.189 91.6834 796.614 91.6834C796.327 91.6834 796.19 91.8752 796.19 92.1217L796.19 93.0258C796.19 93.2724 796.327 93.4367 796.614 93.4367C800.244 93.4367 802.34 94.7928 802.34 97.1352C802.34 99.3542 800.518 100.834 797.683 100.834C794.861 100.834 793.327 99.3679 793.327 97.505C793.327 97.231 793.149 97.1078 792.902 97.1078L791.642 97.1078C791.395 97.1078 791.272 97.2584 791.272 97.4776C791.272 100.792 793.628 102.738 797.669 102.738Z" fill="#fcf3c0" fill-rule="nonzero" opacity="1" stroke="none"/>
</g>
</svg>
